<?xml version="1.0" encoding="UTF-8" standalone="no"?><!DOCTYPE svg PUBLIC "-//W3C//DTD SVG 1.1//EN" "http://www.w3.org/Graphics/SVG/1.1/DTD/svg11.dtd"><svg width="100%" height="100%" viewBox="0 0 1280 1041" version="1.1" xmlns="http://www.w3.org/2000/svg" xmlns:xlink="http://www.w3.org/1999/xlink" xml:space="preserve" xmlns:serif="http://www.serif.com/" style="fill-rule:evenodd;clip-rule:evenodd;stroke-linecap:round;stroke-linejoin:round;stroke-miterlimit:1.5;"><path d="M14.583,164.653l0,-108.045c0,-27.903 19.397,-50.556 43.288,-50.556l1164.02,-0c23.892,-0 43.289,22.653 43.289,50.556l-0,108.045l-1250.6,-0Zm1185.24,-109.148c-16.426,-0 -29.761,13.336 -29.761,29.762c-0,16.426 13.335,29.762 29.761,29.762c16.426,-0 29.762,-13.336 29.762,-29.762c0,-16.426 -13.336,-29.762 -29.762,-29.762Zm-202.5,0.171c-16.426,0 -29.761,13.336 -29.761,29.762c-0,16.426 13.335,29.762 29.761,29.762c16.426,-0 29.762,-13.336 29.762,-29.762c0,-16.426 -13.336,-29.762 -29.762,-29.762Zm101.351,-0.171c-16.426,-0 -29.762,13.336 -29.762,29.762c0,16.426 13.336,29.762 29.762,29.762c16.426,-0 29.762,-13.336 29.762,-29.762c0,-16.426 -13.336,-29.762 -29.762,-29.762Z" style="fill:#2a7de1;"/><path d="M1265.18,65.139l-0,910.01c-0,27.903 -22.654,50.556 -50.557,50.556l-1149.48,0c-27.902,0 -50.556,-22.653 -50.556,-50.556l0,-910.01c0,-27.902 22.654,-50.556 50.556,-50.556l1149.48,0c27.903,0 50.557,22.654 50.557,50.556Z" style="fill:none;stroke:#2a7de1;stroke-width:29.17px;"/><path d="M183.714,302.529l117.851,117.851" style="fill:none;stroke:#f37820;stroke-width:41.67px;"/><path d="M301.565,420.38l-117.851,117.852" style="fill:none;stroke:#f37820;stroke-width:41.67px;"/><path d="M330.614,538.232l244.017,-0" style="fill:none;stroke:#f37820;stroke-width:41.67px;"/></svg>