<?xml version="1.0" encoding="UTF-8" standalone="no"?><!DOCTYPE svg PUBLIC "-//W3C//DTD SVG 1.1//EN" "http://www.w3.org/Graphics/SVG/1.1/DTD/svg11.dtd"><svg width="100%" height="100%" viewBox="0 0 1161 1041" version="1.1" xmlns="http://www.w3.org/2000/svg" xmlns:xlink="http://www.w3.org/1999/xlink" xml:space="preserve" xmlns:serif="http://www.serif.com/" style="fill-rule:evenodd;clip-rule:evenodd;stroke-linecap:round;stroke-linejoin:round;stroke-miterlimit:1.5;"><path d="M150.143,118.267l103.119,103.12" style="fill:none;stroke:#f37820;stroke-width:33.33px;"/><path d="M253.262,221.387l-103.119,103.119" style="fill:none;stroke:#f37820;stroke-width:33.33px;"/><path d="M423.766,324.506l-148.841,0" style="fill:none;stroke:#f37820;stroke-width:33.33px;"/><path d="M1146.13,634.306l-1131.55,0" style="fill:none;stroke:#2a7de1;stroke-width:29.17px;"/><circle cx="580.357" cy="716.286" r="31.25" style="fill:none;stroke:#2a7de1;stroke-width:25px;"/><path d="M1146.13,53.751l-0,705.013c-0,21.617 -17.55,39.167 -39.167,39.167l-1053.21,0c-21.617,0 -39.168,-17.55 -39.168,-39.167l0,-705.013c0,-21.617 17.551,-39.168 39.168,-39.168l1053.21,0c21.617,0 39.167,17.551 39.167,39.168Z" style="fill:none;stroke:#2a7de1;stroke-width:29.17px;"/><path d="M696.213,809.365c0,-0 -2.248,106.683 5.788,120.434c5.66,9.685 94.29,37.207 94.29,37.207l0,48.387c0,6.084 -4.84,11.023 -10.802,11.023l-410.263,0c-5.962,0 -10.803,-4.939 -10.803,-11.023l0,-48.387c0,-0 88.406,-27.964 94.261,-36.485c7.582,-11.032 5.817,-121.156 5.817,-121.156" style="fill:none;stroke:#2a7de1;stroke-width:29.17px;"/></svg>