<?xml version="1.0" encoding="UTF-8" standalone="no"?><!DOCTYPE svg PUBLIC "-//W3C//DTD SVG 1.1//EN" "http://www.w3.org/Graphics/SVG/1.1/DTD/svg11.dtd"><svg width="100%" height="100%" viewBox="0 0 798 1042" version="1.1" xmlns="http://www.w3.org/2000/svg" xmlns:xlink="http://www.w3.org/1999/xlink" xml:space="preserve" xmlns:serif="http://www.serif.com/" style="fill-rule:evenodd;clip-rule:evenodd;stroke-linecap:round;stroke-linejoin:round;stroke-miterlimit:1.5;"><path d="M518.884,137.428l-412.768,0" style="fill:none;stroke:#f37820;stroke-width:41.67px;"/><path d="M363.614,710.345l-257.498,-0" style="fill:none;stroke:#f37820;stroke-width:41.67px;"/><path d="M520.833,231.178l-131.031,0" style="fill:none;stroke:#f37820;stroke-width:41.67px;"/><path d="M520.833,335.345l-131.031,-0" style="fill:none;stroke:#f37820;stroke-width:41.67px;"/><path d="M520.833,429.095l-414.717,-0" style="fill:none;stroke:#f37820;stroke-width:41.67px;"/><path d="M251.74,522.769l-145.624,-0" style="fill:none;stroke:#f37820;stroke-width:41.67px;"/><path d="M251.74,616.519l-145.624,-0" style="fill:none;stroke:#f37820;stroke-width:41.67px;"/><path d="M610.417,44.375l-0,657.637l-145.834,145.905l-420.208,-0c-16.442,-0 -29.792,-13.35 -29.792,-29.792l0,-773.75c0,-16.442 13.35,-29.792 29.792,-29.792l536.25,0c16.442,0 29.792,13.35 29.792,29.792Z" style="fill:none;stroke:#2a7de1;stroke-width:29.17px;"/><path d="M464.583,847.845l0,-125c0,-11.506 9.328,-20.833 20.834,-20.833l125,-0" style="fill:none;stroke:#2a7de1;stroke-width:29.17px;"/><path d="M610.417,102.012l58.695,-0c16.443,-0 29.792,13.349 29.792,29.791l0,773.75c0,16.443 -13.349,29.792 -29.792,29.792l-536.25,-0c-16.442,-0 -29.791,-13.349 -29.791,-29.792l-0,-57.636" style="fill:none;stroke:#2a7de1;stroke-width:29.17px;"/><path d="M698.904,193.212l54.182,-0c16.442,-0 29.792,13.349 29.792,29.791l-0,773.75c-0,16.443 -13.35,29.792 -29.792,29.792l-536.25,-0c-16.443,-0 -29.792,-13.349 -29.792,-29.792l0,-61.408" style="fill:none;stroke:#2a7de1;stroke-width:29.17px;"/><rect x="106.116" y="231.178" width="206.384" height="104.167" style="fill:#f37820;stroke:#f37820;stroke-width:41.67px;"/><rect x="339.094" y="522.769" width="179.791" height="93.75" style="fill:none;stroke:#f37820;stroke-width:41.67px;"/></svg>