<?xml version="1.0" encoding="utf-8" standalone="no"?>
<!DOCTYPE svg PUBLIC "-//W3C//DTD SVG 1.1//EN"
  "http://www.w3.org/Graphics/SVG/1.1/DTD/svg11.dtd">
<svg xmlns:xlink="http://www.w3.org/1999/xlink" width="636.48pt" height="413.28pt" viewBox="0 0 636.48 413.28" xmlns="http://www.w3.org/2000/svg" version="1.1">
 <metadata>
  <rdf:RDF xmlns:dc="http://purl.org/dc/elements/1.1/" xmlns:cc="http://creativecommons.org/ns#" xmlns:rdf="http://www.w3.org/1999/02/22-rdf-syntax-ns#">
   <cc:Work>
    <dc:type rdf:resource="http://purl.org/dc/dcmitype/StillImage"/>
    <dc:date>2026-06-25T14:25:22.229543</dc:date>
    <dc:format>image/svg+xml</dc:format>
    <dc:creator>
     <cc:Agent>
      <dc:title>Matplotlib v3.10.9, https://matplotlib.org/</dc:title>
     </cc:Agent>
    </dc:creator>
   </cc:Work>
  </rdf:RDF>
 </metadata>
 <defs>
  <style type="text/css">*{stroke-linejoin: round; stroke-linecap: butt}</style>
 </defs>
 <g id="figure_1">
  <g id="patch_1">
   <path d="M 0 413.28 
L 636.48 413.28 
L 636.48 0 
L 0 0 
z
" style="fill: #ffffff"/>
  </g>
  <g id="axes_1">
   <g id="patch_2">
    <path d="M 79.56 367.8192 
L 572.832 367.8192 
L 572.832 49.5936 
L 79.56 49.5936 
z
" style="fill: #ffffff"/>
   </g>
   <g id="matplotlib.axis_1">
    <g id="xtick_1">
     <g id="line2d_1">
      <path d="M 101.981455 367.8192 
L 101.981455 49.5936 
" clip-path="url(#p711ea71a17)" style="fill: none; stroke: #b0b0b0; stroke-width: 0.8; stroke-linecap: square"/>
     </g>
     <g id="line2d_2">
      <defs>
       <path id="m58c8bf1a42" d="M 0 0 
L 0 3.5 
" style="stroke: #000000; stroke-width: 0.8"/>
      </defs>
      <g>
       <use xlink:href="#m58c8bf1a42" x="101.981455" y="367.8192" style="stroke: #000000; stroke-width: 0.8"/>
      </g>
     </g>
     <g id="text_1">
      <!-- 0.20 -->
      <g transform="translate(90.848642 382.417638) scale(0.1 -0.1)">
       <defs>
        <path id="DejaVuSans-30" d="M 2034 4250 
Q 1547 4250 1301 3770 
Q 1056 3291 1056 2328 
Q 1056 1369 1301 889 
Q 1547 409 2034 409 
Q 2525 409 2770 889 
Q 3016 1369 3016 2328 
Q 3016 3291 2770 3770 
Q 2525 4250 2034 4250 
z
M 2034 4750 
Q 2819 4750 3233 4129 
Q 3647 3509 3647 2328 
Q 3647 1150 3233 529 
Q 2819 -91 2034 -91 
Q 1250 -91 836 529 
Q 422 1150 422 2328 
Q 422 3509 836 4129 
Q 1250 4750 2034 4750 
z
" transform="scale(0.015625)"/>
        <path id="DejaVuSans-2e" d="M 684 794 
L 1344 794 
L 1344 0 
L 684 0 
L 684 794 
z
" transform="scale(0.015625)"/>
        <path id="DejaVuSans-32" d="M 1228 531 
L 3431 531 
L 3431 0 
L 469 0 
L 469 531 
Q 828 903 1448 1529 
Q 2069 2156 2228 2338 
Q 2531 2678 2651 2914 
Q 2772 3150 2772 3378 
Q 2772 3750 2511 3984 
Q 2250 4219 1831 4219 
Q 1534 4219 1204 4116 
Q 875 4013 500 3803 
L 500 4441 
Q 881 4594 1212 4672 
Q 1544 4750 1819 4750 
Q 2544 4750 2975 4387 
Q 3406 4025 3406 3419 
Q 3406 3131 3298 2873 
Q 3191 2616 2906 2266 
Q 2828 2175 2409 1742 
Q 1991 1309 1228 531 
z
" transform="scale(0.015625)"/>
       </defs>
       <use xlink:href="#DejaVuSans-30"/>
       <use xlink:href="#DejaVuSans-2e" transform="translate(63.623047 0)"/>
       <use xlink:href="#DejaVuSans-32" transform="translate(95.410156 0)"/>
       <use xlink:href="#DejaVuSans-30" transform="translate(159.033203 0)"/>
      </g>
     </g>
    </g>
    <g id="xtick_2">
     <g id="line2d_3">
      <path d="M 191.847004 367.8192 
L 191.847004 49.5936 
" clip-path="url(#p711ea71a17)" style="fill: none; stroke: #b0b0b0; stroke-width: 0.8; stroke-linecap: square"/>
     </g>
     <g id="line2d_4">
      <g>
       <use xlink:href="#m58c8bf1a42" x="191.847004" y="367.8192" style="stroke: #000000; stroke-width: 0.8"/>
      </g>
     </g>
     <g id="text_2">
      <!-- 0.25 -->
      <g transform="translate(180.714191 382.417638) scale(0.1 -0.1)">
       <defs>
        <path id="DejaVuSans-35" d="M 691 4666 
L 3169 4666 
L 3169 4134 
L 1269 4134 
L 1269 2991 
Q 1406 3038 1543 3061 
Q 1681 3084 1819 3084 
Q 2600 3084 3056 2656 
Q 3513 2228 3513 1497 
Q 3513 744 3044 326 
Q 2575 -91 1722 -91 
Q 1428 -91 1123 -41 
Q 819 9 494 109 
L 494 744 
Q 775 591 1075 516 
Q 1375 441 1709 441 
Q 2250 441 2565 725 
Q 2881 1009 2881 1497 
Q 2881 1984 2565 2268 
Q 2250 2553 1709 2553 
Q 1456 2553 1204 2497 
Q 953 2441 691 2322 
L 691 4666 
z
" transform="scale(0.015625)"/>
       </defs>
       <use xlink:href="#DejaVuSans-30"/>
       <use xlink:href="#DejaVuSans-2e" transform="translate(63.623047 0)"/>
       <use xlink:href="#DejaVuSans-32" transform="translate(95.410156 0)"/>
       <use xlink:href="#DejaVuSans-35" transform="translate(159.033203 0)"/>
      </g>
     </g>
    </g>
    <g id="xtick_3">
     <g id="line2d_5">
      <path d="M 281.712553 367.8192 
L 281.712553 49.5936 
" clip-path="url(#p711ea71a17)" style="fill: none; stroke: #b0b0b0; stroke-width: 0.8; stroke-linecap: square"/>
     </g>
     <g id="line2d_6">
      <g>
       <use xlink:href="#m58c8bf1a42" x="281.712553" y="367.8192" style="stroke: #000000; stroke-width: 0.8"/>
      </g>
     </g>
     <g id="text_3">
      <!-- 0.30 -->
      <g transform="translate(270.579741 382.417638) scale(0.1 -0.1)">
       <defs>
        <path id="DejaVuSans-33" d="M 2597 2516 
Q 3050 2419 3304 2112 
Q 3559 1806 3559 1356 
Q 3559 666 3084 287 
Q 2609 -91 1734 -91 
Q 1441 -91 1130 -33 
Q 819 25 488 141 
L 488 750 
Q 750 597 1062 519 
Q 1375 441 1716 441 
Q 2309 441 2620 675 
Q 2931 909 2931 1356 
Q 2931 1769 2642 2001 
Q 2353 2234 1838 2234 
L 1294 2234 
L 1294 2753 
L 1863 2753 
Q 2328 2753 2575 2939 
Q 2822 3125 2822 3475 
Q 2822 3834 2567 4026 
Q 2313 4219 1838 4219 
Q 1578 4219 1281 4162 
Q 984 4106 628 3988 
L 628 4550 
Q 988 4650 1302 4700 
Q 1616 4750 1894 4750 
Q 2613 4750 3031 4423 
Q 3450 4097 3450 3541 
Q 3450 3153 3228 2886 
Q 3006 2619 2597 2516 
z
" transform="scale(0.015625)"/>
       </defs>
       <use xlink:href="#DejaVuSans-30"/>
       <use xlink:href="#DejaVuSans-2e" transform="translate(63.623047 0)"/>
       <use xlink:href="#DejaVuSans-33" transform="translate(95.410156 0)"/>
       <use xlink:href="#DejaVuSans-30" transform="translate(159.033203 0)"/>
      </g>
     </g>
    </g>
    <g id="xtick_4">
     <g id="line2d_7">
      <path d="M 371.578102 367.8192 
L 371.578102 49.5936 
" clip-path="url(#p711ea71a17)" style="fill: none; stroke: #b0b0b0; stroke-width: 0.8; stroke-linecap: square"/>
     </g>
     <g id="line2d_8">
      <g>
       <use xlink:href="#m58c8bf1a42" x="371.578102" y="367.8192" style="stroke: #000000; stroke-width: 0.8"/>
      </g>
     </g>
     <g id="text_4">
      <!-- 0.35 -->
      <g transform="translate(360.44529 382.417638) scale(0.1 -0.1)">
       <use xlink:href="#DejaVuSans-30"/>
       <use xlink:href="#DejaVuSans-2e" transform="translate(63.623047 0)"/>
       <use xlink:href="#DejaVuSans-33" transform="translate(95.410156 0)"/>
       <use xlink:href="#DejaVuSans-35" transform="translate(159.033203 0)"/>
      </g>
     </g>
    </g>
    <g id="xtick_5">
     <g id="line2d_9">
      <path d="M 461.443652 367.8192 
L 461.443652 49.5936 
" clip-path="url(#p711ea71a17)" style="fill: none; stroke: #b0b0b0; stroke-width: 0.8; stroke-linecap: square"/>
     </g>
     <g id="line2d_10">
      <g>
       <use xlink:href="#m58c8bf1a42" x="461.443652" y="367.8192" style="stroke: #000000; stroke-width: 0.8"/>
      </g>
     </g>
     <g id="text_5">
      <!-- 0.40 -->
      <g transform="translate(450.310839 382.417638) scale(0.1 -0.1)">
       <defs>
        <path id="DejaVuSans-34" d="M 2419 4116 
L 825 1625 
L 2419 1625 
L 2419 4116 
z
M 2253 4666 
L 3047 4666 
L 3047 1625 
L 3713 1625 
L 3713 1100 
L 3047 1100 
L 3047 0 
L 2419 0 
L 2419 1100 
L 313 1100 
L 313 1709 
L 2253 4666 
z
" transform="scale(0.015625)"/>
       </defs>
       <use xlink:href="#DejaVuSans-30"/>
       <use xlink:href="#DejaVuSans-2e" transform="translate(63.623047 0)"/>
       <use xlink:href="#DejaVuSans-34" transform="translate(95.410156 0)"/>
       <use xlink:href="#DejaVuSans-30" transform="translate(159.033203 0)"/>
      </g>
     </g>
    </g>
    <g id="xtick_6">
     <g id="line2d_11">
      <path d="M 551.309201 367.8192 
L 551.309201 49.5936 
" clip-path="url(#p711ea71a17)" style="fill: none; stroke: #b0b0b0; stroke-width: 0.8; stroke-linecap: square"/>
     </g>
     <g id="line2d_12">
      <g>
       <use xlink:href="#m58c8bf1a42" x="551.309201" y="367.8192" style="stroke: #000000; stroke-width: 0.8"/>
      </g>
     </g>
     <g id="text_6">
      <!-- 0.45 -->
      <g transform="translate(540.176388 382.417638) scale(0.1 -0.1)">
       <use xlink:href="#DejaVuSans-30"/>
       <use xlink:href="#DejaVuSans-2e" transform="translate(63.623047 0)"/>
       <use xlink:href="#DejaVuSans-34" transform="translate(95.410156 0)"/>
       <use xlink:href="#DejaVuSans-35" transform="translate(159.033203 0)"/>
      </g>
     </g>
    </g>
    <g id="text_7">
     <!-- Target Value of Normalized Control Bias $c(s$) -->
     <g transform="translate(214.946 396.097325) scale(0.1 -0.1)">
      <defs>
       <path id="DejaVuSans-54" d="M -19 4666 
L 3928 4666 
L 3928 4134 
L 2272 4134 
L 2272 0 
L 1638 0 
L 1638 4134 
L -19 4134 
L -19 4666 
z
" transform="scale(0.015625)"/>
       <path id="DejaVuSans-61" d="M 2194 1759 
Q 1497 1759 1228 1600 
Q 959 1441 959 1056 
Q 959 750 1161 570 
Q 1363 391 1709 391 
Q 2188 391 2477 730 
Q 2766 1069 2766 1631 
L 2766 1759 
L 2194 1759 
z
M 3341 1997 
L 3341 0 
L 2766 0 
L 2766 531 
Q 2569 213 2275 61 
Q 1981 -91 1556 -91 
Q 1019 -91 701 211 
Q 384 513 384 1019 
Q 384 1609 779 1909 
Q 1175 2209 1959 2209 
L 2766 2209 
L 2766 2266 
Q 2766 2663 2505 2880 
Q 2244 3097 1772 3097 
Q 1472 3097 1187 3025 
Q 903 2953 641 2809 
L 641 3341 
Q 956 3463 1253 3523 
Q 1550 3584 1831 3584 
Q 2591 3584 2966 3190 
Q 3341 2797 3341 1997 
z
" transform="scale(0.015625)"/>
       <path id="DejaVuSans-72" d="M 2631 2963 
Q 2534 3019 2420 3045 
Q 2306 3072 2169 3072 
Q 1681 3072 1420 2755 
Q 1159 2438 1159 1844 
L 1159 0 
L 581 0 
L 581 3500 
L 1159 3500 
L 1159 2956 
Q 1341 3275 1631 3429 
Q 1922 3584 2338 3584 
Q 2397 3584 2469 3576 
Q 2541 3569 2628 3553 
L 2631 2963 
z
" transform="scale(0.015625)"/>
       <path id="DejaVuSans-67" d="M 2906 1791 
Q 2906 2416 2648 2759 
Q 2391 3103 1925 3103 
Q 1463 3103 1205 2759 
Q 947 2416 947 1791 
Q 947 1169 1205 825 
Q 1463 481 1925 481 
Q 2391 481 2648 825 
Q 2906 1169 2906 1791 
z
M 3481 434 
Q 3481 -459 3084 -895 
Q 2688 -1331 1869 -1331 
Q 1566 -1331 1297 -1286 
Q 1028 -1241 775 -1147 
L 775 -588 
Q 1028 -725 1275 -790 
Q 1522 -856 1778 -856 
Q 2344 -856 2625 -561 
Q 2906 -266 2906 331 
L 2906 616 
Q 2728 306 2450 153 
Q 2172 0 1784 0 
Q 1141 0 747 490 
Q 353 981 353 1791 
Q 353 2603 747 3093 
Q 1141 3584 1784 3584 
Q 2172 3584 2450 3431 
Q 2728 3278 2906 2969 
L 2906 3500 
L 3481 3500 
L 3481 434 
z
" transform="scale(0.015625)"/>
       <path id="DejaVuSans-65" d="M 3597 1894 
L 3597 1613 
L 953 1613 
Q 991 1019 1311 708 
Q 1631 397 2203 397 
Q 2534 397 2845 478 
Q 3156 559 3463 722 
L 3463 178 
Q 3153 47 2828 -22 
Q 2503 -91 2169 -91 
Q 1331 -91 842 396 
Q 353 884 353 1716 
Q 353 2575 817 3079 
Q 1281 3584 2069 3584 
Q 2775 3584 3186 3129 
Q 3597 2675 3597 1894 
z
M 3022 2063 
Q 3016 2534 2758 2815 
Q 2500 3097 2075 3097 
Q 1594 3097 1305 2825 
Q 1016 2553 972 2059 
L 3022 2063 
z
" transform="scale(0.015625)"/>
       <path id="DejaVuSans-74" d="M 1172 4494 
L 1172 3500 
L 2356 3500 
L 2356 3053 
L 1172 3053 
L 1172 1153 
Q 1172 725 1289 603 
Q 1406 481 1766 481 
L 2356 481 
L 2356 0 
L 1766 0 
Q 1100 0 847 248 
Q 594 497 594 1153 
L 594 3053 
L 172 3053 
L 172 3500 
L 594 3500 
L 594 4494 
L 1172 4494 
z
" transform="scale(0.015625)"/>
       <path id="DejaVuSans-20" transform="scale(0.015625)"/>
       <path id="DejaVuSans-56" d="M 1831 0 
L 50 4666 
L 709 4666 
L 2188 738 
L 3669 4666 
L 4325 4666 
L 2547 0 
L 1831 0 
z
" transform="scale(0.015625)"/>
       <path id="DejaVuSans-6c" d="M 603 4863 
L 1178 4863 
L 1178 0 
L 603 0 
L 603 4863 
z
" transform="scale(0.015625)"/>
       <path id="DejaVuSans-75" d="M 544 1381 
L 544 3500 
L 1119 3500 
L 1119 1403 
Q 1119 906 1312 657 
Q 1506 409 1894 409 
Q 2359 409 2629 706 
Q 2900 1003 2900 1516 
L 2900 3500 
L 3475 3500 
L 3475 0 
L 2900 0 
L 2900 538 
Q 2691 219 2414 64 
Q 2138 -91 1772 -91 
Q 1169 -91 856 284 
Q 544 659 544 1381 
z
M 1991 3584 
L 1991 3584 
z
" transform="scale(0.015625)"/>
       <path id="DejaVuSans-6f" d="M 1959 3097 
Q 1497 3097 1228 2736 
Q 959 2375 959 1747 
Q 959 1119 1226 758 
Q 1494 397 1959 397 
Q 2419 397 2687 759 
Q 2956 1122 2956 1747 
Q 2956 2369 2687 2733 
Q 2419 3097 1959 3097 
z
M 1959 3584 
Q 2709 3584 3137 3096 
Q 3566 2609 3566 1747 
Q 3566 888 3137 398 
Q 2709 -91 1959 -91 
Q 1206 -91 779 398 
Q 353 888 353 1747 
Q 353 2609 779 3096 
Q 1206 3584 1959 3584 
z
" transform="scale(0.015625)"/>
       <path id="DejaVuSans-66" d="M 2375 4863 
L 2375 4384 
L 1825 4384 
Q 1516 4384 1395 4259 
Q 1275 4134 1275 3809 
L 1275 3500 
L 2222 3500 
L 2222 3053 
L 1275 3053 
L 1275 0 
L 697 0 
L 697 3053 
L 147 3053 
L 147 3500 
L 697 3500 
L 697 3744 
Q 697 4328 969 4595 
Q 1241 4863 1831 4863 
L 2375 4863 
z
" transform="scale(0.015625)"/>
       <path id="DejaVuSans-4e" d="M 628 4666 
L 1478 4666 
L 3547 763 
L 3547 4666 
L 4159 4666 
L 4159 0 
L 3309 0 
L 1241 3903 
L 1241 0 
L 628 0 
L 628 4666 
z
" transform="scale(0.015625)"/>
       <path id="DejaVuSans-6d" d="M 3328 2828 
Q 3544 3216 3844 3400 
Q 4144 3584 4550 3584 
Q 5097 3584 5394 3201 
Q 5691 2819 5691 2113 
L 5691 0 
L 5113 0 
L 5113 2094 
Q 5113 2597 4934 2840 
Q 4756 3084 4391 3084 
Q 3944 3084 3684 2787 
Q 3425 2491 3425 1978 
L 3425 0 
L 2847 0 
L 2847 2094 
Q 2847 2600 2669 2842 
Q 2491 3084 2119 3084 
Q 1678 3084 1418 2786 
Q 1159 2488 1159 1978 
L 1159 0 
L 581 0 
L 581 3500 
L 1159 3500 
L 1159 2956 
Q 1356 3278 1631 3431 
Q 1906 3584 2284 3584 
Q 2666 3584 2933 3390 
Q 3200 3197 3328 2828 
z
" transform="scale(0.015625)"/>
       <path id="DejaVuSans-69" d="M 603 3500 
L 1178 3500 
L 1178 0 
L 603 0 
L 603 3500 
z
M 603 4863 
L 1178 4863 
L 1178 4134 
L 603 4134 
L 603 4863 
z
" transform="scale(0.015625)"/>
       <path id="DejaVuSans-7a" d="M 353 3500 
L 3084 3500 
L 3084 2975 
L 922 459 
L 3084 459 
L 3084 0 
L 275 0 
L 275 525 
L 2438 3041 
L 353 3041 
L 353 3500 
z
" transform="scale(0.015625)"/>
       <path id="DejaVuSans-64" d="M 2906 2969 
L 2906 4863 
L 3481 4863 
L 3481 0 
L 2906 0 
L 2906 525 
Q 2725 213 2448 61 
Q 2172 -91 1784 -91 
Q 1150 -91 751 415 
Q 353 922 353 1747 
Q 353 2572 751 3078 
Q 1150 3584 1784 3584 
Q 2172 3584 2448 3432 
Q 2725 3281 2906 2969 
z
M 947 1747 
Q 947 1113 1208 752 
Q 1469 391 1925 391 
Q 2381 391 2643 752 
Q 2906 1113 2906 1747 
Q 2906 2381 2643 2742 
Q 2381 3103 1925 3103 
Q 1469 3103 1208 2742 
Q 947 2381 947 1747 
z
" transform="scale(0.015625)"/>
       <path id="DejaVuSans-43" d="M 4122 4306 
L 4122 3641 
Q 3803 3938 3442 4084 
Q 3081 4231 2675 4231 
Q 1875 4231 1450 3742 
Q 1025 3253 1025 2328 
Q 1025 1406 1450 917 
Q 1875 428 2675 428 
Q 3081 428 3442 575 
Q 3803 722 4122 1019 
L 4122 359 
Q 3791 134 3420 21 
Q 3050 -91 2638 -91 
Q 1578 -91 968 557 
Q 359 1206 359 2328 
Q 359 3453 968 4101 
Q 1578 4750 2638 4750 
Q 3056 4750 3426 4639 
Q 3797 4528 4122 4306 
z
" transform="scale(0.015625)"/>
       <path id="DejaVuSans-6e" d="M 3513 2113 
L 3513 0 
L 2938 0 
L 2938 2094 
Q 2938 2591 2744 2837 
Q 2550 3084 2163 3084 
Q 1697 3084 1428 2787 
Q 1159 2491 1159 1978 
L 1159 0 
L 581 0 
L 581 3500 
L 1159 3500 
L 1159 2956 
Q 1366 3272 1645 3428 
Q 1925 3584 2291 3584 
Q 2894 3584 3203 3211 
Q 3513 2838 3513 2113 
z
" transform="scale(0.015625)"/>
       <path id="DejaVuSans-42" d="M 1259 2228 
L 1259 519 
L 2272 519 
Q 2781 519 3026 730 
Q 3272 941 3272 1375 
Q 3272 1813 3026 2020 
Q 2781 2228 2272 2228 
L 1259 2228 
z
M 1259 4147 
L 1259 2741 
L 2194 2741 
Q 2656 2741 2882 2914 
Q 3109 3088 3109 3444 
Q 3109 3797 2882 3972 
Q 2656 4147 2194 4147 
L 1259 4147 
z
M 628 4666 
L 2241 4666 
Q 2963 4666 3353 4366 
Q 3744 4066 3744 3513 
Q 3744 3084 3544 2831 
Q 3344 2578 2956 2516 
Q 3422 2416 3680 2098 
Q 3938 1781 3938 1306 
Q 3938 681 3513 340 
Q 3088 0 2303 0 
L 628 0 
L 628 4666 
z
" transform="scale(0.015625)"/>
       <path id="DejaVuSans-73" d="M 2834 3397 
L 2834 2853 
Q 2591 2978 2328 3040 
Q 2066 3103 1784 3103 
Q 1356 3103 1142 2972 
Q 928 2841 928 2578 
Q 928 2378 1081 2264 
Q 1234 2150 1697 2047 
L 1894 2003 
Q 2506 1872 2764 1633 
Q 3022 1394 3022 966 
Q 3022 478 2636 193 
Q 2250 -91 1575 -91 
Q 1294 -91 989 -36 
Q 684 19 347 128 
L 347 722 
Q 666 556 975 473 
Q 1284 391 1588 391 
Q 1994 391 2212 530 
Q 2431 669 2431 922 
Q 2431 1156 2273 1281 
Q 2116 1406 1581 1522 
L 1381 1569 
Q 847 1681 609 1914 
Q 372 2147 372 2553 
Q 372 3047 722 3315 
Q 1072 3584 1716 3584 
Q 2034 3584 2315 3537 
Q 2597 3491 2834 3397 
z
" transform="scale(0.015625)"/>
       <path id="DejaVuSans-Oblique-63" d="M 3431 3366 
L 3316 2797 
Q 3109 2947 2876 3022 
Q 2644 3097 2394 3097 
Q 2119 3097 1870 3000 
Q 1622 2903 1453 2725 
Q 1184 2453 1037 2087 
Q 891 1722 891 1331 
Q 891 859 1127 628 
Q 1363 397 1844 397 
Q 2081 397 2348 469 
Q 2616 541 2906 684 
L 2797 116 
Q 2547 13 2283 -39 
Q 2019 -91 1741 -91 
Q 1044 -91 669 257 
Q 294 606 294 1253 
Q 294 1797 489 2255 
Q 684 2713 1069 3078 
Q 1331 3328 1684 3456 
Q 2038 3584 2456 3584 
Q 2700 3584 2940 3529 
Q 3181 3475 3431 3366 
z
" transform="scale(0.015625)"/>
       <path id="DejaVuSans-28" d="M 1984 4856 
Q 1566 4138 1362 3434 
Q 1159 2731 1159 2009 
Q 1159 1288 1364 580 
Q 1569 -128 1984 -844 
L 1484 -844 
Q 1016 -109 783 600 
Q 550 1309 550 2009 
Q 550 2706 781 3412 
Q 1013 4119 1484 4856 
L 1984 4856 
z
" transform="scale(0.015625)"/>
       <path id="DejaVuSans-Oblique-73" d="M 3200 3397 
L 3091 2853 
Q 2863 2978 2609 3040 
Q 2356 3103 2088 3103 
Q 1634 3103 1373 2948 
Q 1113 2794 1113 2528 
Q 1113 2219 1719 2053 
Q 1766 2041 1788 2034 
L 1972 1978 
Q 2547 1819 2739 1644 
Q 2931 1469 2931 1166 
Q 2931 609 2489 259 
Q 2047 -91 1331 -91 
Q 1053 -91 747 -37 
Q 441 16 72 128 
L 184 722 
Q 500 559 806 475 
Q 1113 391 1394 391 
Q 1816 391 2080 572 
Q 2344 753 2344 1031 
Q 2344 1331 1650 1516 
L 1591 1531 
L 1394 1581 
Q 956 1697 753 1886 
Q 550 2075 550 2369 
Q 550 2928 970 3256 
Q 1391 3584 2113 3584 
Q 2397 3584 2667 3537 
Q 2938 3491 3200 3397 
z
" transform="scale(0.015625)"/>
       <path id="DejaVuSans-29" d="M 513 4856 
L 1013 4856 
Q 1481 4119 1714 3412 
Q 1947 2706 1947 2009 
Q 1947 1309 1714 600 
Q 1481 -109 1013 -844 
L 513 -844 
Q 928 -128 1133 580 
Q 1338 1288 1338 2009 
Q 1338 2731 1133 3434 
Q 928 4138 513 4856 
z
" transform="scale(0.015625)"/>
      </defs>
      <use xlink:href="#DejaVuSans-54" transform="translate(0 0.015625)"/>
      <use xlink:href="#DejaVuSans-61" transform="translate(61.083984 0.015625)"/>
      <use xlink:href="#DejaVuSans-72" transform="translate(122.363281 0.015625)"/>
      <use xlink:href="#DejaVuSans-67" transform="translate(163.476562 0.015625)"/>
      <use xlink:href="#DejaVuSans-65" transform="translate(226.953125 0.015625)"/>
      <use xlink:href="#DejaVuSans-74" transform="translate(288.476562 0.015625)"/>
      <use xlink:href="#DejaVuSans-20" transform="translate(327.685547 0.015625)"/>
      <use xlink:href="#DejaVuSans-56" transform="translate(359.472656 0.015625)"/>
      <use xlink:href="#DejaVuSans-61" transform="translate(427.880859 0.015625)"/>
      <use xlink:href="#DejaVuSans-6c" transform="translate(489.160156 0.015625)"/>
      <use xlink:href="#DejaVuSans-75" transform="translate(516.943359 0.015625)"/>
      <use xlink:href="#DejaVuSans-65" transform="translate(580.322266 0.015625)"/>
      <use xlink:href="#DejaVuSans-20" transform="translate(641.845703 0.015625)"/>
      <use xlink:href="#DejaVuSans-6f" transform="translate(673.632812 0.015625)"/>
      <use xlink:href="#DejaVuSans-66" transform="translate(734.814453 0.015625)"/>
      <use xlink:href="#DejaVuSans-20" transform="translate(770.019531 0.015625)"/>
      <use xlink:href="#DejaVuSans-4e" transform="translate(801.806641 0.015625)"/>
      <use xlink:href="#DejaVuSans-6f" transform="translate(876.611328 0.015625)"/>
      <use xlink:href="#DejaVuSans-72" transform="translate(937.792969 0.015625)"/>
      <use xlink:href="#DejaVuSans-6d" transform="translate(978.90625 0.015625)"/>
      <use xlink:href="#DejaVuSans-61" transform="translate(1076.318359 0.015625)"/>
      <use xlink:href="#DejaVuSans-6c" transform="translate(1137.597656 0.015625)"/>
      <use xlink:href="#DejaVuSans-69" transform="translate(1165.380859 0.015625)"/>
      <use xlink:href="#DejaVuSans-7a" transform="translate(1193.164062 0.015625)"/>
      <use xlink:href="#DejaVuSans-65" transform="translate(1245.654297 0.015625)"/>
      <use xlink:href="#DejaVuSans-64" transform="translate(1307.177734 0.015625)"/>
      <use xlink:href="#DejaVuSans-20" transform="translate(1370.654297 0.015625)"/>
      <use xlink:href="#DejaVuSans-43" transform="translate(1402.441406 0.015625)"/>
      <use xlink:href="#DejaVuSans-6f" transform="translate(1472.265625 0.015625)"/>
      <use xlink:href="#DejaVuSans-6e" transform="translate(1533.447266 0.015625)"/>
      <use xlink:href="#DejaVuSans-74" transform="translate(1596.826172 0.015625)"/>
      <use xlink:href="#DejaVuSans-72" transform="translate(1636.035156 0.015625)"/>
      <use xlink:href="#DejaVuSans-6f" transform="translate(1677.148438 0.015625)"/>
      <use xlink:href="#DejaVuSans-6c" transform="translate(1738.330078 0.015625)"/>
      <use xlink:href="#DejaVuSans-20" transform="translate(1766.113281 0.015625)"/>
      <use xlink:href="#DejaVuSans-42" transform="translate(1797.900391 0.015625)"/>
      <use xlink:href="#DejaVuSans-69" transform="translate(1866.503906 0.015625)"/>
      <use xlink:href="#DejaVuSans-61" transform="translate(1894.287109 0.015625)"/>
      <use xlink:href="#DejaVuSans-73" transform="translate(1955.566406 0.015625)"/>
      <use xlink:href="#DejaVuSans-20" transform="translate(2007.666016 0.015625)"/>
      <use xlink:href="#DejaVuSans-Oblique-63" transform="translate(2039.453125 0.015625)"/>
      <use xlink:href="#DejaVuSans-28" transform="translate(2094.433594 0.015625)"/>
      <use xlink:href="#DejaVuSans-Oblique-73" transform="translate(2133.447266 0.015625)"/>
      <use xlink:href="#DejaVuSans-29" transform="translate(2185.546875 0.015625)"/>
     </g>
    </g>
   </g>
   <g id="matplotlib.axis_2">
    <g id="ytick_1">
     <g id="line2d_13">
      <path d="M 79.56 353.3544 
L 572.832 353.3544 
" clip-path="url(#p711ea71a17)" style="fill: none; stroke: #b0b0b0; stroke-width: 0.8; stroke-linecap: square"/>
     </g>
     <g id="line2d_14">
      <defs>
       <path id="mb386845b56" d="M 0 0 
L -3.5 0 
" style="stroke: #000000; stroke-width: 0.8"/>
      </defs>
      <g>
       <use xlink:href="#mb386845b56" x="79.56" y="353.3544" style="stroke: #000000; stroke-width: 0.8"/>
      </g>
     </g>
     <g id="text_8">
      <!-- 0.0 -->
      <g transform="translate(56.656875 357.153619) scale(0.1 -0.1)">
       <use xlink:href="#DejaVuSans-30"/>
       <use xlink:href="#DejaVuSans-2e" transform="translate(63.623047 0)"/>
       <use xlink:href="#DejaVuSans-30" transform="translate(95.410156 0)"/>
      </g>
     </g>
    </g>
    <g id="ytick_2">
     <g id="line2d_15">
      <path d="M 79.56 295.4952 
L 572.832 295.4952 
" clip-path="url(#p711ea71a17)" style="fill: none; stroke: #b0b0b0; stroke-width: 0.8; stroke-linecap: square"/>
     </g>
     <g id="line2d_16">
      <g>
       <use xlink:href="#mb386845b56" x="79.56" y="295.4952" style="stroke: #000000; stroke-width: 0.8"/>
      </g>
     </g>
     <g id="text_9">
      <!-- 0.2 -->
      <g transform="translate(56.656875 299.294419) scale(0.1 -0.1)">
       <use xlink:href="#DejaVuSans-30"/>
       <use xlink:href="#DejaVuSans-2e" transform="translate(63.623047 0)"/>
       <use xlink:href="#DejaVuSans-32" transform="translate(95.410156 0)"/>
      </g>
     </g>
    </g>
    <g id="ytick_3">
     <g id="line2d_17">
      <path d="M 79.56 237.636 
L 572.832 237.636 
" clip-path="url(#p711ea71a17)" style="fill: none; stroke: #b0b0b0; stroke-width: 0.8; stroke-linecap: square"/>
     </g>
     <g id="line2d_18">
      <g>
       <use xlink:href="#mb386845b56" x="79.56" y="237.636" style="stroke: #000000; stroke-width: 0.8"/>
      </g>
     </g>
     <g id="text_10">
      <!-- 0.4 -->
      <g transform="translate(56.656875 241.435219) scale(0.1 -0.1)">
       <use xlink:href="#DejaVuSans-30"/>
       <use xlink:href="#DejaVuSans-2e" transform="translate(63.623047 0)"/>
       <use xlink:href="#DejaVuSans-34" transform="translate(95.410156 0)"/>
      </g>
     </g>
    </g>
    <g id="ytick_4">
     <g id="line2d_19">
      <path d="M 79.56 179.7768 
L 572.832 179.7768 
" clip-path="url(#p711ea71a17)" style="fill: none; stroke: #b0b0b0; stroke-width: 0.8; stroke-linecap: square"/>
     </g>
     <g id="line2d_20">
      <g>
       <use xlink:href="#mb386845b56" x="79.56" y="179.7768" style="stroke: #000000; stroke-width: 0.8"/>
      </g>
     </g>
     <g id="text_11">
      <!-- 0.6 -->
      <g transform="translate(56.656875 183.576019) scale(0.1 -0.1)">
       <defs>
        <path id="DejaVuSans-36" d="M 2113 2584 
Q 1688 2584 1439 2293 
Q 1191 2003 1191 1497 
Q 1191 994 1439 701 
Q 1688 409 2113 409 
Q 2538 409 2786 701 
Q 3034 994 3034 1497 
Q 3034 2003 2786 2293 
Q 2538 2584 2113 2584 
z
M 3366 4563 
L 3366 3988 
Q 3128 4100 2886 4159 
Q 2644 4219 2406 4219 
Q 1781 4219 1451 3797 
Q 1122 3375 1075 2522 
Q 1259 2794 1537 2939 
Q 1816 3084 2150 3084 
Q 2853 3084 3261 2657 
Q 3669 2231 3669 1497 
Q 3669 778 3244 343 
Q 2819 -91 2113 -91 
Q 1303 -91 875 529 
Q 447 1150 447 2328 
Q 447 3434 972 4092 
Q 1497 4750 2381 4750 
Q 2619 4750 2861 4703 
Q 3103 4656 3366 4563 
z
" transform="scale(0.015625)"/>
       </defs>
       <use xlink:href="#DejaVuSans-30"/>
       <use xlink:href="#DejaVuSans-2e" transform="translate(63.623047 0)"/>
       <use xlink:href="#DejaVuSans-36" transform="translate(95.410156 0)"/>
      </g>
     </g>
    </g>
    <g id="ytick_5">
     <g id="line2d_21">
      <path d="M 79.56 121.9176 
L 572.832 121.9176 
" clip-path="url(#p711ea71a17)" style="fill: none; stroke: #b0b0b0; stroke-width: 0.8; stroke-linecap: square"/>
     </g>
     <g id="line2d_22">
      <g>
       <use xlink:href="#mb386845b56" x="79.56" y="121.9176" style="stroke: #000000; stroke-width: 0.8"/>
      </g>
     </g>
     <g id="text_12">
      <!-- 0.8 -->
      <g transform="translate(56.656875 125.716819) scale(0.1 -0.1)">
       <defs>
        <path id="DejaVuSans-38" d="M 2034 2216 
Q 1584 2216 1326 1975 
Q 1069 1734 1069 1313 
Q 1069 891 1326 650 
Q 1584 409 2034 409 
Q 2484 409 2743 651 
Q 3003 894 3003 1313 
Q 3003 1734 2745 1975 
Q 2488 2216 2034 2216 
z
M 1403 2484 
Q 997 2584 770 2862 
Q 544 3141 544 3541 
Q 544 4100 942 4425 
Q 1341 4750 2034 4750 
Q 2731 4750 3128 4425 
Q 3525 4100 3525 3541 
Q 3525 3141 3298 2862 
Q 3072 2584 2669 2484 
Q 3125 2378 3379 2068 
Q 3634 1759 3634 1313 
Q 3634 634 3220 271 
Q 2806 -91 2034 -91 
Q 1263 -91 848 271 
Q 434 634 434 1313 
Q 434 1759 690 2068 
Q 947 2378 1403 2484 
z
M 1172 3481 
Q 1172 3119 1398 2916 
Q 1625 2713 2034 2713 
Q 2441 2713 2670 2916 
Q 2900 3119 2900 3481 
Q 2900 3844 2670 4047 
Q 2441 4250 2034 4250 
Q 1625 4250 1398 4047 
Q 1172 3844 1172 3481 
z
" transform="scale(0.015625)"/>
       </defs>
       <use xlink:href="#DejaVuSans-30"/>
       <use xlink:href="#DejaVuSans-2e" transform="translate(63.623047 0)"/>
       <use xlink:href="#DejaVuSans-38" transform="translate(95.410156 0)"/>
      </g>
     </g>
    </g>
    <g id="ytick_6">
     <g id="line2d_23">
      <path d="M 79.56 64.0584 
L 572.832 64.0584 
" clip-path="url(#p711ea71a17)" style="fill: none; stroke: #b0b0b0; stroke-width: 0.8; stroke-linecap: square"/>
     </g>
     <g id="line2d_24">
      <g>
       <use xlink:href="#mb386845b56" x="79.56" y="64.0584" style="stroke: #000000; stroke-width: 0.8"/>
      </g>
     </g>
     <g id="text_13">
      <!-- 1.0 -->
      <g transform="translate(56.656875 67.857619) scale(0.1 -0.1)">
       <defs>
        <path id="DejaVuSans-31" d="M 794 531 
L 1825 531 
L 1825 4091 
L 703 3866 
L 703 4441 
L 1819 4666 
L 2450 4666 
L 2450 531 
L 3481 531 
L 3481 0 
L 794 0 
L 794 531 
z
" transform="scale(0.015625)"/>
       </defs>
       <use xlink:href="#DejaVuSans-31"/>
       <use xlink:href="#DejaVuSans-2e" transform="translate(63.623047 0)"/>
       <use xlink:href="#DejaVuSans-30" transform="translate(95.410156 0)"/>
      </g>
     </g>
    </g>
    <g id="text_14">
     <!-- Spin Population -->
     <g transform="translate(50.577187 247.468119) rotate(-90) scale(0.1 -0.1)">
      <defs>
       <path id="DejaVuSans-53" d="M 3425 4513 
L 3425 3897 
Q 3066 4069 2747 4153 
Q 2428 4238 2131 4238 
Q 1616 4238 1336 4038 
Q 1056 3838 1056 3469 
Q 1056 3159 1242 3001 
Q 1428 2844 1947 2747 
L 2328 2669 
Q 3034 2534 3370 2195 
Q 3706 1856 3706 1288 
Q 3706 609 3251 259 
Q 2797 -91 1919 -91 
Q 1588 -91 1214 -16 
Q 841 59 441 206 
L 441 856 
Q 825 641 1194 531 
Q 1563 422 1919 422 
Q 2459 422 2753 634 
Q 3047 847 3047 1241 
Q 3047 1584 2836 1778 
Q 2625 1972 2144 2069 
L 1759 2144 
Q 1053 2284 737 2584 
Q 422 2884 422 3419 
Q 422 4038 858 4394 
Q 1294 4750 2059 4750 
Q 2388 4750 2728 4690 
Q 3069 4631 3425 4513 
z
" transform="scale(0.015625)"/>
       <path id="DejaVuSans-70" d="M 1159 525 
L 1159 -1331 
L 581 -1331 
L 581 3500 
L 1159 3500 
L 1159 2969 
Q 1341 3281 1617 3432 
Q 1894 3584 2278 3584 
Q 2916 3584 3314 3078 
Q 3713 2572 3713 1747 
Q 3713 922 3314 415 
Q 2916 -91 2278 -91 
Q 1894 -91 1617 61 
Q 1341 213 1159 525 
z
M 3116 1747 
Q 3116 2381 2855 2742 
Q 2594 3103 2138 3103 
Q 1681 3103 1420 2742 
Q 1159 2381 1159 1747 
Q 1159 1113 1420 752 
Q 1681 391 2138 391 
Q 2594 391 2855 752 
Q 3116 1113 3116 1747 
z
" transform="scale(0.015625)"/>
       <path id="DejaVuSans-50" d="M 1259 4147 
L 1259 2394 
L 2053 2394 
Q 2494 2394 2734 2622 
Q 2975 2850 2975 3272 
Q 2975 3691 2734 3919 
Q 2494 4147 2053 4147 
L 1259 4147 
z
M 628 4666 
L 2053 4666 
Q 2838 4666 3239 4311 
Q 3641 3956 3641 3272 
Q 3641 2581 3239 2228 
Q 2838 1875 2053 1875 
L 1259 1875 
L 1259 0 
L 628 0 
L 628 4666 
z
" transform="scale(0.015625)"/>
      </defs>
      <use xlink:href="#DejaVuSans-53"/>
      <use xlink:href="#DejaVuSans-70" transform="translate(63.476562 0)"/>
      <use xlink:href="#DejaVuSans-69" transform="translate(126.953125 0)"/>
      <use xlink:href="#DejaVuSans-6e" transform="translate(154.736328 0)"/>
      <use xlink:href="#DejaVuSans-20" transform="translate(218.115234 0)"/>
      <use xlink:href="#DejaVuSans-50" transform="translate(249.902344 0)"/>
      <use xlink:href="#DejaVuSans-6f" transform="translate(306.580078 0)"/>
      <use xlink:href="#DejaVuSans-70" transform="translate(367.761719 0)"/>
      <use xlink:href="#DejaVuSans-75" transform="translate(431.238281 0)"/>
      <use xlink:href="#DejaVuSans-6c" transform="translate(494.617188 0)"/>
      <use xlink:href="#DejaVuSans-61" transform="translate(522.400391 0)"/>
      <use xlink:href="#DejaVuSans-74" transform="translate(583.679688 0)"/>
      <use xlink:href="#DejaVuSans-69" transform="translate(622.888672 0)"/>
      <use xlink:href="#DejaVuSans-6f" transform="translate(650.671875 0)"/>
      <use xlink:href="#DejaVuSans-6e" transform="translate(711.853516 0)"/>
     </g>
    </g>
   </g>
   <g id="line2d_25">
    <path d="M 101.981455 182.432447 
L 102.88011 189.565966 
L 103.778766 189.777853 
L 104.677421 224.386017 
L 105.576077 252.920095 
L 106.474732 261.04242 
L 107.373388 243.59708 
L 108.272043 222.549666 
L 109.170698 190.907916 
L 110.069354 178.194713 
L 110.968009 189.071564 
L 111.866665 203.833005 
L 112.76532 235.19224 
L 113.663976 237.381736 
L 114.562631 252.213806 
L 115.461287 242.25513 
L 116.359942 201.996654 
L 117.258598 197.264517 
L 118.157253 183.350623 
L 119.055909 185.398861 
L 119.954564 229.047525 
L 120.85322 229.259412 
L 121.751875 254.332673 
L 122.650531 258.499779 
L 123.549186 240.065634 
L 124.447842 211.390298 
L 125.346497 172.826916 
L 126.245153 171.061193 
L 128.042464 214.780486 
L 128.941119 244.373998 
L 129.839775 255.81588 
L 130.73843 256.734056 
L 131.637086 229.047525 
L 132.535741 216.687466 
L 133.434397 176.005216 
L 134.333052 179.607291 
L 135.231708 188.082759 
L 136.130363 208.423884 
L 137.029019 240.206892 
L 137.927674 249.247392 
L 138.82633 253.202611 
L 139.724985 251.29563 
L 140.623641 219.865767 
L 141.522296 174.45138 
L 142.420952 168.518552 
L 143.319607 180.94924 
L 144.218263 196.628857 
L 145.116918 233.355888 
L 146.015574 256.169025 
L 146.914229 260.406759 
L 147.812885 238.794314 
L 149.610196 175.016412 
L 150.508851 172.332513 
L 151.407507 190.978545 
L 152.306162 197.688291 
L 153.204818 235.19224 
L 155.002129 262.454998 
L 155.900784 249.459279 
L 156.79944 219.724509 
L 157.698095 172.120627 
L 158.596751 181.090498 
L 159.495406 179.254146 
L 160.394062 198.606466 
L 162.191373 257.440345 
L 163.090028 262.878771 
L 163.988684 258.287892 
L 164.887339 211.037154 
L 165.785995 200.584076 
L 166.68465 163.857045 
L 167.583306 170.354904 
L 168.481961 193.662443 
L 169.380617 227.069916 
L 170.279272 253.414498 
L 171.177927 266.975248 
L 172.076583 253.485127 
L 172.975238 211.884701 
L 174.772549 167.529748 
L 175.671205 162.020693 
L 176.56986 180.878611 
L 177.468516 216.758095 
L 178.367171 258.782295 
L 179.265827 266.692732 
L 180.164482 260.971791 
L 181.063138 231.448908 
L 181.961793 189.000935 
L 182.860449 170.496162 
L 183.759104 157.994845 
L 184.65776 176.923392 
L 185.556415 212.167216 
L 186.455071 238.582427 
L 187.353726 256.945943 
L 188.252382 267.540279 
L 189.151037 232.296455 
L 190.049693 210.966525 
L 190.948348 159.901826 
L 191.847004 153.262709 
L 192.745659 170.566791 
L 193.644315 184.056912 
L 194.54297 239.218088 
L 196.340281 265.209525 
L 197.238937 258.641037 
L 198.137592 215.910548 
L 199.036248 202.27917 
L 199.934903 159.548681 
L 200.833559 164.13956 
L 201.732214 187.800244 
L 202.63087 207.929482 
L 203.529525 255.674623 
L 204.428181 257.228459 
L 205.326836 257.016572 
L 206.225492 235.898529 
L 207.124147 206.728791 
L 208.022803 166.894088 
L 208.921458 150.649439 
L 209.820114 159.195537 
L 210.718769 198.606466 
L 211.617425 229.471298 
L 212.51608 256.310283 
L 213.414736 266.339588 
L 214.313391 243.808966 
L 215.212047 232.932115 
L 216.110702 173.038802 
L 217.009358 167.600377 
L 217.908013 163.927673 
L 218.806669 168.306666 
L 219.705324 215.204259 
L 220.60398 228.482494 
L 221.502635 269.800404 
L 222.401291 265.421412 
L 223.299946 240.701295 
L 224.198602 212.379103 
L 225.097257 159.054279 
L 225.995913 151.496986 
L 226.894568 148.106798 
L 227.793224 170.284275 
L 228.691879 213.438537 
L 229.590535 246.280978 
L 230.48919 266.763361 
L 231.387846 257.15783 
L 232.286501 216.687466 
L 233.185156 206.163759 
L 234.083812 156.087865 
L 234.982467 141.114537 
L 235.881123 173.956978 
L 236.779778 189.636595 
L 237.678434 235.8279 
L 238.577089 250.306826 
L 239.475745 267.681537 
L 240.3744 251.860662 
L 241.273056 207.223193 
L 242.171711 179.819177 
L 243.070367 141.255795 
L 243.969022 146.835478 
L 244.867678 160.820002 
L 245.766333 189.777853 
L 246.664989 240.771923 
L 247.563644 257.369716 
L 248.4623 262.9494 
L 249.360955 259.206068 
L 251.158266 184.763201 
L 252.056922 150.155037 
L 252.955577 152.132646 
L 253.854233 151.708873 
L 254.752888 182.008673 
L 255.651544 234.132806 
L 256.550199 259.771099 
L 257.448855 268.74097 
L 258.34751 256.734056 
L 259.246166 209.97772 
L 260.144821 207.081935 
L 261.043477 155.09906 
L 261.942132 148.530572 
L 262.840788 163.645158 
L 263.739443 182.503076 
L 264.638099 242.043244 
L 265.536754 252.00192 
L 266.43541 273.755623 
L 267.334065 269.023486 
L 268.232721 239.147459 
L 269.131376 198.677095 
L 270.030032 149.801892 
L 270.928687 151.073213 
L 272.725998 157.782959 
L 273.624654 220.572056 
L 274.523309 235.333498 
L 275.421965 265.492041 
L 276.32062 265.492041 
L 279.016587 169.224841 
L 279.915242 145.493529 
L 280.813898 147.471138 
L 281.712553 152.768306 
L 282.611209 199.383384 
L 283.509864 222.832181 
L 284.40852 266.410216 
L 285.307175 274.885685 
L 286.205831 261.607451 
L 287.104486 224.951048 
L 288.003142 176.217103 
L 289.800453 133.698502 
L 290.699108 138.99567 
L 292.496419 208.423884 
L 294.29373 269.447259 
L 295.192385 269.659146 
L 296.091041 248.964877 
L 297.888352 177.770939 
L 298.787007 146.835478 
L 299.685663 134.263533 
L 300.584318 139.066298 
L 302.381629 206.870048 
L 303.280285 245.574689 
L 304.17894 261.607451 
L 305.077596 269.588517 
L 305.976251 258.499779 
L 306.874907 212.944134 
L 307.773562 184.410056 
L 308.672218 138.218752 
L 309.570873 138.360009 
L 310.469529 132.568439 
L 311.368184 145.634787 
L 312.26684 199.312755 
L 313.165495 205.528099 
L 314.064151 256.451541 
L 314.962806 261.183677 
L 315.861462 263.726318 
L 316.760117 241.125068 
L 317.658773 192.603009 
L 318.557428 172.261884 
L 319.456084 132.992213 
L 320.354739 124.516744 
L 321.253395 140.620134 
L 322.15205 174.098236 
L 323.949361 249.883052 
L 324.848017 267.822795 
L 325.746672 275.23883 
L 326.645328 257.722861 
L 327.543983 224.386017 
L 328.442639 196.41697 
L 329.341294 154.110255 
L 330.23995 131.509005 
L 331.138605 125.152404 
L 332.037261 128.754478 
L 332.935916 168.942326 
L 333.834572 199.736529 
L 334.733227 246.13972 
L 336.530538 273.119963 
L 337.429194 264.22072 
L 338.327849 226.575513 
L 339.226505 203.197345 
L 340.12516 150.57881 
L 341.922471 116.888822 
L 342.821127 120.632154 
L 343.719782 175.228298 
L 344.618438 175.934588 
L 345.517093 231.448908 
L 346.415749 259.488584 
L 347.314404 268.952857 
L 348.21306 266.480845 
L 349.111715 244.8684 
L 350.010371 218.170673 
L 350.909026 162.444466 
L 352.706337 117.171338 
L 353.604993 110.461591 
L 354.503648 134.969822 
L 355.402304 153.333338 
L 358.09827 251.225002 
L 358.996925 269.800404 
L 359.895581 258.217263 
L 360.794236 260.830533 
L 364.388858 114.911213 
L 365.287514 114.558068 
L 366.186169 109.614045 
L 367.084825 121.55033 
L 368.882136 180.596095 
L 369.780791 220.289541 
L 370.679447 241.901986 
L 371.578102 260.33613 
L 373.375413 273.614365 
L 375.172724 208.777029 
L 376.07138 170.001759 
L 377.868691 120.91467 
L 378.767346 107.071404 
L 379.666002 113.710521 
L 380.564657 124.516744 
L 381.463313 139.701959 
L 382.361968 158.559877 
L 383.260624 210.189607 
L 384.159279 230.177588 
L 385.057935 256.098396 
L 385.95659 255.603994 
L 386.855246 271.35424 
L 387.753901 262.596255 
L 388.652557 229.40067 
L 389.551212 210.189607 
L 390.449868 174.310123 
L 391.348523 161.455662 
L 392.247179 117.100709 
L 393.145834 107.707064 
L 394.04449 103.610588 
L 394.943145 107.35392 
L 395.841801 122.751021 
L 396.740456 154.039627 
L 397.639112 171.979369 
L 398.537767 186.952697 
L 399.436423 216.263693 
L 400.335078 255.81588 
L 401.233734 252.425693 
L 402.132389 265.915814 
L 403.9297 256.169025 
L 404.828356 238.44117 
L 407.524322 157.641701 
L 408.422978 148.106798 
L 409.321633 115.970646 
L 410.220289 105.093795 
L 411.118944 103.539959 
L 412.0176 98.666564 
L 412.916255 100.2204 
L 413.814911 117.948255 
L 414.713566 126.918127 
L 415.612222 148.106798 
L 416.510877 153.19208 
L 417.409533 196.487599 
L 418.308188 201.855396 
L 419.206844 226.575513 
L 420.105499 231.94331 
L 421.004154 240.701295 
L 421.90281 237.876138 
L 422.801465 236.534189 
L 423.700121 238.864943 
L 424.598776 241.831357 
L 425.497432 230.318845 
L 426.396087 210.401494 
L 427.294743 208.635771 
L 429.092054 162.656353 
L 429.990709 151.355728 
L 430.889365 126.07058 
L 431.78802 119.57272 
L 432.686676 116.676935 
L 433.585331 105.941341 
L 434.483987 92.45122 
L 435.382642 95.558892 
L 436.281298 93.440025 
L 437.179953 92.945623 
L 438.078609 106.01197 
L 438.977264 106.506373 
L 439.87592 118.725173 
L 440.774575 120.773412 
L 441.673231 137.229947 
L 443.470542 147.612396 
L 444.369197 158.98365 
L 445.267853 163.927673 
L 446.166508 193.168041 
L 447.065164 193.168041 
L 447.963819 206.728791 
L 448.862475 214.568599 
L 449.76113 224.527275 
L 450.659786 212.379103 
L 451.558441 213.650423 
L 452.457097 206.516904 
L 453.355752 205.45747 
L 454.254408 189.000935 
L 455.153063 194.50999 
L 456.051719 229.683185 
L 456.950374 219.724509 
L 457.84903 231.660795 
L 458.747685 199.948416 
L 459.646341 205.174955 
L 460.544996 195.78131 
L 461.443652 191.967349 
L 462.342307 203.126716 
L 463.240963 185.540119 
L 464.139618 194.298103 
L 465.038274 173.391947 
L 465.936929 175.581443 
L 466.835585 170.284275 
L 467.73424 181.5849 
L 468.632896 164.77522 
L 469.531551 153.403966 
L 470.430207 153.333338 
L 471.328862 144.857869 
L 473.126173 131.509005 
L 474.024829 126.494353 
L 474.923484 127.695045 
L 475.82214 123.45731 
L 476.720795 123.951713 
L 477.619451 110.461591 
L 478.518106 111.238509 
L 479.416762 103.116185 
L 480.315417 101.915494 
L 481.214073 107.707064 
L 482.112728 98.878451 
L 483.011383 95.70015 
L 483.910039 93.440025 
L 484.808694 93.79317 
L 485.70735 88.001599 
L 486.606005 85.247072 
L 487.504661 81.079966 
L 488.403316 85.529587 
L 489.301972 84.470154 
L 490.200627 84.117009 
L 491.099283 79.102357 
L 491.997938 81.291853 
L 492.896594 78.466697 
L 493.795249 79.384873 
L 494.693905 76.700974 
L 495.59256 76.489087 
L 496.491216 72.180724 
L 497.389871 75.288396 
L 498.288527 69.567455 
L 499.187182 71.403806 
L 500.085838 75.359025 
L 500.984493 69.426197 
L 501.883149 70.415002 
L 502.781804 69.355568 
L 503.68046 70.48563 
L 504.579115 68.57865 
L 505.477771 68.649279 
L 506.376426 68.508021 
L 507.275082 68.225505 
L 508.173737 66.106638 
L 509.072393 69.21431 
L 509.971048 65.188463 
L 510.869704 66.883556 
L 511.768359 69.002423 
L 512.667015 67.166072 
L 514.464326 65.470978 
L 515.362981 66.177267 
L 516.261637 66.459783 
L 517.160292 65.32972 
L 518.058948 65.612236 
L 518.957603 66.036009 
L 519.856259 66.67167 
L 520.754914 65.32972 
L 521.65357 65.470978 
L 522.552225 66.389154 
L 523.450881 64.552802 
L 524.349536 65.541607 
L 525.248192 64.340916 
L 527.944158 64.69406 
L 529.741469 64.482173 
L 530.640125 64.129029 
L 531.53878 65.470978 
L 532.437436 64.835318 
L 533.336091 65.188463 
L 534.234747 64.411545 
L 535.133402 64.411545 
L 536.032058 64.623431 
L 536.930713 64.340916 
L 537.829369 64.411545 
L 538.728024 64.69406 
L 539.62668 64.0584 
L 540.525335 64.270287 
L 541.423991 64.623431 
L 542.322646 64.199658 
L 543.221302 65.047205 
L 544.119957 64.623431 
L 546.815923 64.411545 
L 548.613234 64.0584 
L 549.51189 64.552802 
L 550.410545 64.340916 
L 550.410545 64.340916 
" clip-path="url(#p711ea71a17)" style="fill: none; stroke: #1f77b4; stroke-width: 1.5; stroke-linecap: square"/>
   </g>
   <g id="line2d_26">
    <path d="M 101.981455 234.980353 
L 102.88011 227.846834 
L 103.778766 227.634947 
L 104.677421 193.026783 
L 105.576077 164.492705 
L 106.474732 156.37038 
L 107.373388 173.81572 
L 108.272043 194.863134 
L 109.170698 226.504884 
L 110.069354 239.218088 
L 110.968009 228.341236 
L 111.866665 213.579795 
L 112.76532 182.22056 
L 113.663976 180.031064 
L 114.562631 165.198994 
L 115.461287 175.15767 
L 116.359942 215.416146 
L 117.258598 220.148283 
L 118.157253 234.062177 
L 119.055909 232.013939 
L 119.954564 188.365275 
L 120.85322 188.153388 
L 121.751875 163.080127 
L 122.650531 158.913021 
L 123.549186 177.347166 
L 124.447842 206.022502 
L 125.346497 244.585884 
L 126.245153 246.351607 
L 128.042464 202.632314 
L 128.941119 173.038802 
L 129.839775 161.59692 
L 130.73843 160.678744 
L 131.637086 188.365275 
L 132.535741 200.725334 
L 133.434397 241.407584 
L 134.333052 237.805509 
L 135.231708 229.330041 
L 136.130363 208.988916 
L 137.029019 177.205908 
L 137.927674 168.165408 
L 138.82633 164.210189 
L 139.724985 166.11717 
L 140.623641 197.547033 
L 141.522296 242.96142 
L 142.420952 248.894248 
L 143.319607 236.46356 
L 144.218263 220.783943 
L 145.116918 184.056912 
L 146.015574 161.243775 
L 146.914229 157.006041 
L 147.812885 178.618486 
L 149.610196 242.396388 
L 150.508851 245.080287 
L 151.407507 226.434255 
L 152.306162 219.724509 
L 153.204818 182.22056 
L 155.002129 154.957802 
L 155.900784 167.953521 
L 156.79944 197.688291 
L 157.698095 245.292173 
L 158.596751 236.322302 
L 159.495406 238.158654 
L 160.394062 218.806334 
L 162.191373 159.972455 
L 163.090028 154.534029 
L 163.988684 159.124908 
L 164.887339 206.375646 
L 165.785995 216.828724 
L 166.68465 253.555755 
L 167.583306 247.057896 
L 168.481961 223.750357 
L 169.380617 190.342884 
L 170.279272 163.998302 
L 171.177927 150.437552 
L 172.076583 163.927673 
L 172.975238 205.528099 
L 174.772549 249.883052 
L 175.671205 255.392107 
L 176.56986 236.534189 
L 177.468516 200.654705 
L 178.367171 158.630505 
L 179.265827 150.720068 
L 180.164482 156.441009 
L 181.063138 185.963892 
L 181.961793 228.411865 
L 182.860449 246.916638 
L 183.759104 259.417955 
L 184.65776 240.489408 
L 185.556415 205.245584 
L 186.455071 178.830373 
L 187.353726 160.466857 
L 188.252382 149.872521 
L 189.151037 185.116345 
L 190.049693 206.446275 
L 190.948348 257.510974 
L 191.847004 264.150091 
L 192.745659 246.846009 
L 193.644315 233.355888 
L 194.54297 178.194713 
L 196.340281 152.203275 
L 197.238937 158.771763 
L 198.137592 201.502252 
L 199.036248 215.13363 
L 199.934903 257.864119 
L 200.833559 253.27324 
L 201.732214 229.612556 
L 202.63087 209.483318 
L 203.529525 161.738177 
L 204.428181 160.184341 
L 205.326836 160.396228 
L 206.225492 181.514271 
L 207.124147 210.684009 
L 208.022803 250.518713 
L 208.921458 266.763361 
L 209.820114 258.217263 
L 210.718769 218.806334 
L 211.617425 187.941502 
L 212.51608 161.102517 
L 213.414736 151.073213 
L 214.313391 173.603834 
L 215.212047 184.480685 
L 216.110702 244.373998 
L 217.009358 249.812423 
L 217.908013 253.485127 
L 218.806669 249.106134 
L 219.705324 202.208541 
L 220.60398 188.930306 
L 221.502635 147.612396 
L 222.401291 151.991388 
L 223.299946 176.711505 
L 224.198602 205.033697 
L 225.097257 258.358521 
L 225.995913 265.915814 
L 226.894568 269.306002 
L 227.793224 247.128525 
L 228.691879 203.974263 
L 229.590535 171.131822 
L 230.48919 150.649439 
L 231.387846 160.25497 
L 232.286501 200.725334 
L 233.185156 211.249041 
L 234.083812 261.324935 
L 234.982467 276.298263 
L 235.881123 243.455822 
L 236.779778 227.776205 
L 237.678434 181.5849 
L 238.577089 167.105974 
L 239.475745 149.731263 
L 240.3744 165.552138 
L 241.273056 210.189607 
L 242.171711 237.593623 
L 243.070367 276.157005 
L 243.969022 270.577322 
L 244.867678 256.592798 
L 245.766333 227.634947 
L 246.664989 176.640877 
L 247.563644 160.043084 
L 248.4623 154.4634 
L 249.360955 158.206732 
L 251.158266 232.649599 
L 252.056922 267.257763 
L 252.955577 265.280154 
L 253.854233 265.703927 
L 254.752888 235.404127 
L 255.651544 183.279994 
L 256.550199 157.641701 
L 257.448855 148.67183 
L 258.34751 160.678744 
L 259.246166 207.43508 
L 260.144821 210.330865 
L 261.043477 262.31374 
L 261.942132 268.882228 
L 262.840788 253.767642 
L 263.739443 234.909724 
L 264.638099 175.369556 
L 265.536754 165.41088 
L 266.43541 143.657177 
L 267.334065 148.389314 
L 268.232721 178.265341 
L 269.131376 218.735705 
L 270.030032 267.610908 
L 270.928687 266.339588 
L 272.725998 259.629841 
L 273.624654 196.840744 
L 274.523309 182.079302 
L 275.421965 151.920759 
L 276.32062 151.920759 
L 279.016587 248.187959 
L 279.915242 271.919271 
L 280.813898 269.941662 
L 281.712553 264.644494 
L 282.611209 218.029416 
L 283.509864 194.580619 
L 284.40852 151.002584 
L 285.307175 142.527115 
L 286.205831 155.805349 
L 287.104486 192.461752 
L 288.003142 241.195697 
L 289.800453 283.714298 
L 290.699108 278.41713 
L 292.496419 208.988916 
L 294.29373 147.965541 
L 295.192385 147.753654 
L 296.091041 168.447923 
L 297.888352 239.641861 
L 298.787007 270.577322 
L 299.685663 283.149267 
L 300.584318 278.346502 
L 302.381629 210.542752 
L 303.280285 171.838111 
L 304.17894 155.805349 
L 305.077596 147.824283 
L 305.976251 158.913021 
L 306.874907 204.468666 
L 307.773562 233.002744 
L 308.672218 279.194048 
L 309.570873 279.052791 
L 310.469529 284.844361 
L 311.368184 271.778013 
L 312.26684 218.100045 
L 313.165495 211.884701 
L 314.064151 160.961259 
L 314.962806 156.229123 
L 315.861462 153.686482 
L 316.760117 176.287732 
L 317.658773 224.809791 
L 318.557428 245.150916 
L 319.456084 284.420588 
L 320.354739 292.896056 
L 321.253395 276.792666 
L 322.15205 243.314564 
L 323.949361 167.529748 
L 324.848017 149.590005 
L 325.746672 142.17397 
L 326.645328 159.689939 
L 327.543983 193.026783 
L 328.442639 220.99583 
L 329.341294 263.302545 
L 330.23995 285.903795 
L 331.138605 292.260396 
L 332.037261 288.658322 
L 332.935916 248.470474 
L 333.834572 217.676271 
L 334.733227 171.27308 
L 336.530538 144.292838 
L 337.429194 153.19208 
L 338.327849 190.837287 
L 339.226505 214.215455 
L 340.12516 266.83399 
L 341.922471 300.523978 
L 342.821127 296.780646 
L 343.719782 242.184502 
L 344.618438 241.478213 
L 345.517093 185.963892 
L 346.415749 157.924216 
L 347.314404 148.459943 
L 348.21306 150.931955 
L 349.111715 172.5444 
L 350.010371 199.242127 
L 350.909026 254.968334 
L 352.706337 300.241463 
L 353.604993 306.951209 
L 354.503648 282.442978 
L 355.402304 264.079463 
L 358.09827 166.187798 
L 358.996925 147.612396 
L 359.895581 159.195537 
L 360.794236 156.582267 
L 364.388858 302.501588 
L 365.287514 302.854732 
L 366.186169 307.798755 
L 367.084825 295.86247 
L 368.882136 236.816705 
L 369.780791 197.123259 
L 370.679447 175.510814 
L 371.578102 157.07667 
L 373.375413 143.798435 
L 375.172724 208.635771 
L 376.07138 247.411041 
L 377.868691 296.49813 
L 378.767346 310.341396 
L 379.666002 303.702279 
L 380.564657 292.896056 
L 381.463313 277.710841 
L 382.361968 258.852923 
L 383.260624 207.223193 
L 384.159279 187.235213 
L 385.057935 161.314404 
L 385.95659 161.808806 
L 386.855246 146.05856 
L 387.753901 154.816545 
L 388.652557 188.01213 
L 389.551212 207.223193 
L 390.449868 243.102677 
L 391.348523 255.957138 
L 392.247179 300.312091 
L 393.145834 309.705736 
L 394.04449 313.802213 
L 394.943145 310.05888 
L 395.841801 294.661779 
L 396.740456 263.373173 
L 397.639112 245.433431 
L 398.537767 230.460103 
L 399.436423 201.149107 
L 400.335078 161.59692 
L 401.233734 164.987107 
L 402.132389 151.496986 
L 403.9297 161.243775 
L 404.828356 178.97163 
L 407.524322 259.771099 
L 408.422978 269.306002 
L 409.321633 301.442154 
L 410.220289 312.319005 
L 411.118944 313.872841 
L 412.0176 318.746236 
L 412.916255 317.1924 
L 413.814911 299.464545 
L 414.713566 290.494673 
L 415.612222 269.306002 
L 416.510877 264.22072 
L 417.409533 220.925201 
L 418.308188 215.557404 
L 419.206844 190.837287 
L 420.105499 185.46949 
L 421.004154 176.711505 
L 421.90281 179.536662 
L 422.801465 180.878611 
L 423.700121 178.547857 
L 424.598776 175.581443 
L 425.497432 187.093955 
L 426.396087 207.011306 
L 427.294743 208.777029 
L 429.092054 254.756447 
L 429.990709 266.057072 
L 430.889365 291.34222 
L 431.78802 297.84008 
L 432.686676 300.735865 
L 433.585331 311.471459 
L 434.483987 324.96158 
L 435.382642 321.853908 
L 436.281298 323.972775 
L 437.179953 324.467177 
L 438.078609 311.40083 
L 438.977264 310.906427 
L 439.87592 298.687627 
L 440.774575 296.639388 
L 441.673231 280.182853 
L 443.470542 269.800404 
L 444.369197 258.42915 
L 445.267853 253.485127 
L 446.166508 224.244759 
L 447.065164 224.244759 
L 447.963819 210.684009 
L 448.862475 202.844201 
L 449.76113 192.885525 
L 450.659786 205.033697 
L 451.558441 203.762377 
L 452.457097 210.895896 
L 453.355752 211.95533 
L 454.254408 228.411865 
L 455.153063 222.90281 
L 456.051719 187.729615 
L 456.950374 197.688291 
L 457.84903 185.752005 
L 458.747685 217.464384 
L 459.646341 212.237845 
L 460.544996 221.63149 
L 461.443652 225.445451 
L 462.342307 214.286084 
L 463.240963 231.872681 
L 464.139618 223.114697 
L 465.038274 244.020853 
L 465.936929 241.831357 
L 466.835585 247.128525 
L 467.73424 235.8279 
L 468.632896 252.63758 
L 469.531551 264.008834 
L 470.430207 264.079463 
L 471.328862 272.554931 
L 473.126173 285.903795 
L 474.024829 290.918447 
L 474.923484 289.717755 
L 475.82214 293.95549 
L 476.720795 293.461088 
L 477.619451 306.951209 
L 478.518106 306.174291 
L 479.416762 314.296615 
L 480.315417 315.497306 
L 481.214073 309.705736 
L 482.112728 318.534349 
L 483.011383 321.71265 
L 483.910039 323.972775 
L 484.808694 323.61963 
L 485.70735 329.411201 
L 486.606005 332.165728 
L 487.504661 336.332834 
L 488.403316 331.883213 
L 489.301972 332.942646 
L 490.200627 333.295791 
L 491.099283 338.310443 
L 491.997938 336.120947 
L 492.896594 338.946103 
L 493.795249 338.027927 
L 494.693905 340.711826 
L 495.59256 340.923713 
L 496.491216 345.232076 
L 497.389871 342.124404 
L 498.288527 347.845345 
L 499.187182 346.008994 
L 500.085838 342.053775 
L 500.984493 347.986603 
L 501.883149 346.997798 
L 502.781804 348.057232 
L 503.68046 346.92717 
L 504.579115 348.83415 
L 505.477771 348.763521 
L 506.376426 348.904779 
L 507.275082 349.187295 
L 508.173737 351.306162 
L 509.072393 348.19849 
L 509.971048 352.224338 
L 510.869704 350.529244 
L 511.768359 348.410377 
L 512.667015 350.246728 
L 514.464326 351.941822 
L 515.362981 351.235533 
L 516.261637 350.953017 
L 517.160292 352.08308 
L 518.058948 351.800564 
L 518.957603 351.376791 
L 519.856259 350.74113 
L 520.754914 352.08308 
L 521.65357 351.941822 
L 522.552225 351.023646 
L 523.450881 352.859998 
L 524.349536 351.871193 
L 525.248192 353.071884 
L 527.944158 352.71874 
L 529.741469 352.930627 
L 530.640125 353.283771 
L 531.53878 351.941822 
L 532.437436 352.577482 
L 533.336091 352.224338 
L 534.234747 353.001255 
L 535.133402 353.001255 
L 536.032058 352.789369 
L 536.930713 353.071884 
L 537.829369 353.001255 
L 538.728024 352.71874 
L 539.62668 353.3544 
L 540.525335 353.142513 
L 541.423991 352.789369 
L 542.322646 353.213142 
L 543.221302 352.365595 
L 544.119957 352.789369 
L 546.815923 353.001255 
L 548.613234 353.3544 
L 549.51189 352.859998 
L 550.410545 353.071884 
L 550.410545 353.071884 
" clip-path="url(#p711ea71a17)" style="fill: none; stroke: #ff7f0e; stroke-width: 1.5; stroke-linecap: square"/>
   </g>
   <g id="patch_3">
    <path d="M 79.56 367.8192 
L 79.56 49.5936 
" style="fill: none; stroke: #000000; stroke-width: 0.8; stroke-linejoin: miter; stroke-linecap: square"/>
   </g>
   <g id="patch_4">
    <path d="M 572.832 367.8192 
L 572.832 49.5936 
" style="fill: none; stroke: #000000; stroke-width: 0.8; stroke-linejoin: miter; stroke-linecap: square"/>
   </g>
   <g id="patch_5">
    <path d="M 79.56 367.8192 
L 572.832 367.8192 
" style="fill: none; stroke: #000000; stroke-width: 0.8; stroke-linejoin: miter; stroke-linecap: square"/>
   </g>
   <g id="patch_6">
    <path d="M 79.56 49.5936 
L 572.832 49.5936 
" style="fill: none; stroke: #000000; stroke-width: 0.8; stroke-linejoin: miter; stroke-linecap: square"/>
   </g>
   <g id="text_15">
    <!-- Experiment Results -->
    <g transform="translate(267.957563 43.5936) scale(0.12 -0.12)">
     <defs>
      <path id="DejaVuSans-45" d="M 628 4666 
L 3578 4666 
L 3578 4134 
L 1259 4134 
L 1259 2753 
L 3481 2753 
L 3481 2222 
L 1259 2222 
L 1259 531 
L 3634 531 
L 3634 0 
L 628 0 
L 628 4666 
z
" transform="scale(0.015625)"/>
      <path id="DejaVuSans-78" d="M 3513 3500 
L 2247 1797 
L 3578 0 
L 2900 0 
L 1881 1375 
L 863 0 
L 184 0 
L 1544 1831 
L 300 3500 
L 978 3500 
L 1906 2253 
L 2834 3500 
L 3513 3500 
z
" transform="scale(0.015625)"/>
      <path id="DejaVuSans-52" d="M 2841 2188 
Q 3044 2119 3236 1894 
Q 3428 1669 3622 1275 
L 4263 0 
L 3584 0 
L 2988 1197 
Q 2756 1666 2539 1819 
Q 2322 1972 1947 1972 
L 1259 1972 
L 1259 0 
L 628 0 
L 628 4666 
L 2053 4666 
Q 2853 4666 3247 4331 
Q 3641 3997 3641 3322 
Q 3641 2881 3436 2590 
Q 3231 2300 2841 2188 
z
M 1259 4147 
L 1259 2491 
L 2053 2491 
Q 2509 2491 2742 2702 
Q 2975 2913 2975 3322 
Q 2975 3731 2742 3939 
Q 2509 4147 2053 4147 
L 1259 4147 
z
" transform="scale(0.015625)"/>
     </defs>
     <use xlink:href="#DejaVuSans-45"/>
     <use xlink:href="#DejaVuSans-78" transform="translate(63.183594 0)"/>
     <use xlink:href="#DejaVuSans-70" transform="translate(122.363281 0)"/>
     <use xlink:href="#DejaVuSans-65" transform="translate(185.839844 0)"/>
     <use xlink:href="#DejaVuSans-72" transform="translate(247.363281 0)"/>
     <use xlink:href="#DejaVuSans-69" transform="translate(288.476562 0)"/>
     <use xlink:href="#DejaVuSans-6d" transform="translate(316.259766 0)"/>
     <use xlink:href="#DejaVuSans-65" transform="translate(413.671875 0)"/>
     <use xlink:href="#DejaVuSans-6e" transform="translate(475.195312 0)"/>
     <use xlink:href="#DejaVuSans-74" transform="translate(538.574219 0)"/>
     <use xlink:href="#DejaVuSans-20" transform="translate(577.783203 0)"/>
     <use xlink:href="#DejaVuSans-52" transform="translate(609.570312 0)"/>
     <use xlink:href="#DejaVuSans-65" transform="translate(674.552734 0)"/>
     <use xlink:href="#DejaVuSans-73" transform="translate(736.076172 0)"/>
     <use xlink:href="#DejaVuSans-75" transform="translate(788.175781 0)"/>
     <use xlink:href="#DejaVuSans-6c" transform="translate(851.554688 0)"/>
     <use xlink:href="#DejaVuSans-74" transform="translate(879.337891 0)"/>
     <use xlink:href="#DejaVuSans-73" transform="translate(918.546875 0)"/>
    </g>
   </g>
   <g id="legend_1">
    <g id="patch_7">
     <path d="M 86.56 86.94985 
L 162.469375 86.94985 
Q 164.469375 86.94985 164.469375 84.94985 
L 164.469375 56.5936 
Q 164.469375 54.5936 162.469375 54.5936 
L 86.56 54.5936 
Q 84.56 54.5936 84.56 56.5936 
L 84.56 84.94985 
Q 84.56 86.94985 86.56 86.94985 
z
" style="fill: #ffffff; opacity: 0.8; stroke: #cccccc; stroke-linejoin: miter"/>
    </g>
    <g id="line2d_27">
     <path d="M 88.56 62.692037 
L 98.56 62.692037 
L 108.56 62.692037 
" style="fill: none; stroke: #1f77b4; stroke-width: 1.5; stroke-linecap: square"/>
    </g>
    <g id="text_16">
     <!-- All Up -->
     <g transform="translate(116.56 66.192037) scale(0.1 -0.1)">
      <defs>
       <path id="DejaVuSans-41" d="M 2188 4044 
L 1331 1722 
L 3047 1722 
L 2188 4044 
z
M 1831 4666 
L 2547 4666 
L 4325 0 
L 3669 0 
L 3244 1197 
L 1141 1197 
L 716 0 
L 50 0 
L 1831 4666 
z
" transform="scale(0.015625)"/>
       <path id="DejaVuSans-55" d="M 556 4666 
L 1191 4666 
L 1191 1831 
Q 1191 1081 1462 751 
Q 1734 422 2344 422 
Q 2950 422 3222 751 
Q 3494 1081 3494 1831 
L 3494 4666 
L 4128 4666 
L 4128 1753 
Q 4128 841 3676 375 
Q 3225 -91 2344 -91 
Q 1459 -91 1007 375 
Q 556 841 556 1753 
L 556 4666 
z
" transform="scale(0.015625)"/>
      </defs>
      <use xlink:href="#DejaVuSans-41"/>
      <use xlink:href="#DejaVuSans-6c" transform="translate(68.408203 0)"/>
      <use xlink:href="#DejaVuSans-6c" transform="translate(96.191406 0)"/>
      <use xlink:href="#DejaVuSans-20" transform="translate(123.974609 0)"/>
      <use xlink:href="#DejaVuSans-55" transform="translate(155.761719 0)"/>
      <use xlink:href="#DejaVuSans-70" transform="translate(228.955078 0)"/>
     </g>
    </g>
    <g id="line2d_28">
     <path d="M 88.56 77.370162 
L 98.56 77.370162 
L 108.56 77.370162 
" style="fill: none; stroke: #ff7f0e; stroke-width: 1.5; stroke-linecap: square"/>
    </g>
    <g id="text_17">
     <!-- All Down -->
     <g transform="translate(116.56 80.870162) scale(0.1 -0.1)">
      <defs>
       <path id="DejaVuSans-44" d="M 1259 4147 
L 1259 519 
L 2022 519 
Q 2988 519 3436 956 
Q 3884 1394 3884 2338 
Q 3884 3275 3436 3711 
Q 2988 4147 2022 4147 
L 1259 4147 
z
M 628 4666 
L 1925 4666 
Q 3281 4666 3915 4102 
Q 4550 3538 4550 2338 
Q 4550 1131 3912 565 
Q 3275 0 1925 0 
L 628 0 
L 628 4666 
z
" transform="scale(0.015625)"/>
       <path id="DejaVuSans-77" d="M 269 3500 
L 844 3500 
L 1563 769 
L 2278 3500 
L 2956 3500 
L 3675 769 
L 4391 3500 
L 4966 3500 
L 4050 0 
L 3372 0 
L 2619 2869 
L 1863 0 
L 1184 0 
L 269 3500 
z
" transform="scale(0.015625)"/>
      </defs>
      <use xlink:href="#DejaVuSans-41"/>
      <use xlink:href="#DejaVuSans-6c" transform="translate(68.408203 0)"/>
      <use xlink:href="#DejaVuSans-6c" transform="translate(96.191406 0)"/>
      <use xlink:href="#DejaVuSans-20" transform="translate(123.974609 0)"/>
      <use xlink:href="#DejaVuSans-44" transform="translate(155.761719 0)"/>
      <use xlink:href="#DejaVuSans-6f" transform="translate(232.763672 0)"/>
      <use xlink:href="#DejaVuSans-77" transform="translate(293.945312 0)"/>
      <use xlink:href="#DejaVuSans-6e" transform="translate(375.732422 0)"/>
     </g>
    </g>
   </g>
  </g>
 </g>
 <defs>
  <clipPath id="p711ea71a17">
   <rect x="79.56" y="49.5936" width="493.272" height="318.2256"/>
  </clipPath>
 </defs>
</svg>
