<?xml version="1.0" encoding="UTF-8" standalone="no"?><!DOCTYPE svg PUBLIC "-//W3C//DTD SVG 1.1//EN" "http://www.w3.org/Graphics/SVG/1.1/DTD/svg11.dtd"><svg width="100%" height="100%" viewBox="0 0 1042 1042" version="1.1" xmlns="http://www.w3.org/2000/svg" xmlns:xlink="http://www.w3.org/1999/xlink" xml:space="preserve" xmlns:serif="http://www.serif.com/" style="fill-rule:evenodd;clip-rule:evenodd;stroke-linecap:round;stroke-linejoin:round;stroke-miterlimit:1.5;"><path d="M212.5,66.553l0,908.548c0,22.933 -18.619,41.553 -41.553,41.553l-0.227,-0c-22.934,-0 -41.553,-18.62 -41.553,-41.553l-0,-908.548c-0,-22.934 18.619,-41.553 41.553,-41.553l0.227,0c22.934,0 41.553,18.619 41.553,41.553Z" style="fill:none;stroke:#2a7de1;stroke-width:25px;"/><path d="M679.167,66.667l-0,908.32c-0,22.996 -18.671,41.667 -41.667,41.667c-22.996,-0 -41.667,-18.671 -41.667,-41.667l0,-908.32c0,-22.997 18.671,-41.667 41.667,-41.667c22.996,0 41.667,18.67 41.667,41.667Z" style="fill:none;stroke:#2a7de1;stroke-width:25px;"/><path d="M912.5,66.667l0,908.32c0,22.996 -18.67,41.667 -41.667,41.667c-22.996,-0 -41.666,-18.671 -41.666,-41.667l-0,-908.32c-0,-22.997 18.67,-41.667 41.666,-41.667c22.997,0 41.667,18.67 41.667,41.667Z" style="fill:none;stroke:#2a7de1;stroke-width:25px;"/><path d="M975,212.487l-908.333,-0c-22.997,-0 -41.667,-18.67 -41.667,-41.667c0,-22.996 18.67,-41.666 41.667,-41.666l908.333,-0c22.996,-0 41.667,18.67 41.667,41.666c-0,22.997 -18.671,41.667 -41.667,41.667Z" style="fill:none;stroke:#2a7de1;stroke-width:25px;"/><path d="M975,679.154l-908.333,-0c-22.997,-0 -41.667,-18.671 -41.667,-41.667c0,-22.996 18.67,-41.667 41.667,-41.667l908.333,0c22.996,0 41.667,18.671 41.667,41.667c-0,22.996 -18.671,41.667 -41.667,41.667Z" style="fill:none;stroke:#2a7de1;stroke-width:25px;"/><path d="M975,445.82l-908.333,0c-22.997,0 -41.667,-18.67 -41.667,-41.666c0,-22.997 18.67,-41.667 41.667,-41.667l908.333,-0c22.996,-0 41.667,18.67 41.667,41.667c-0,22.996 -18.671,41.666 -41.667,41.666Z" style="fill:none;stroke:#f37820;stroke-width:50px;"/><path d="M975,912.487l-908.333,-0c-22.997,-0 -41.667,-18.67 -41.667,-41.667c0,-22.996 18.67,-41.666 41.667,-41.666l908.333,-0c22.996,-0 41.667,18.67 41.667,41.666c-0,22.997 -18.671,41.667 -41.667,41.667Z" style="fill:none;stroke:#2a7de1;stroke-width:25px;"/><path d="M445.833,66.667l0,908.32c0,22.996 -18.67,41.667 -41.666,41.667c-22.997,-0 -41.667,-18.671 -41.667,-41.667l0,-908.32c0,-22.997 18.67,-41.667 41.667,-41.667c22.996,-0 41.666,18.67 41.666,41.667Z" style="fill:none;stroke:#f37820;stroke-width:50px;"/></svg>