<?xml version="1.0" encoding="UTF-8" standalone="no"?><!DOCTYPE svg PUBLIC "-//W3C//DTD SVG 1.1//EN" "http://www.w3.org/Graphics/SVG/1.1/DTD/svg11.dtd"><svg width="100%" height="100%" viewBox="0 0 1490 1041" version="1.1" xmlns="http://www.w3.org/2000/svg" xmlns:xlink="http://www.w3.org/1999/xlink" xml:space="preserve" xmlns:serif="http://www.serif.com/" style="fill-rule:evenodd;clip-rule:evenodd;stroke-linecap:round;stroke-linejoin:round;stroke-miterlimit:1.5;"><path d="M14.583,164.653l0,-108.045c0,-27.903 22.654,-50.556 50.556,-50.556l1359.46,-0c27.903,-0 50.557,22.653 50.557,50.556l-0,108.045l-1460.57,-0Zm1291.78,-89.99c-9.063,0 -16.421,7.358 -16.421,16.421c0,9.062 7.358,16.42 16.421,16.42c9.063,0 16.42,-7.358 16.42,-16.42c0,-9.063 -7.357,-16.421 -16.42,-16.421Zm53.483,0c-9.063,0 -16.421,7.358 -16.421,16.421c0,9.062 7.358,16.42 16.421,16.42c9.063,0 16.421,-7.358 16.421,-16.42c-0,-9.063 -7.358,-16.421 -16.421,-16.421Zm53.512,0c-9.062,0 -16.42,7.358 -16.42,16.421c-0,9.062 7.358,16.42 16.42,16.42c9.063,0 16.421,-7.358 16.421,-16.42c-0,-9.063 -7.358,-16.421 -16.421,-16.421Z" style="fill:#2a7de1;"/><path d="M429.167,164.653l-0,861.052" style="fill:none;stroke:#2a7de1;stroke-width:29.17px;"/><path d="M429.543,797.979l1045.61,-0" style="fill:none;stroke:#2a7de1;stroke-width:29.17px;"/><path d="M368.703,249.844l-290.989,-0" style="fill:none;stroke:#2a7de1;stroke-width:29.17px;"/><path d="M368.703,354.095l-290.989,-0" style="fill:none;stroke:#2a7de1;stroke-width:29.17px;"/><path d="M368.703,458.262l-290.989,-0" style="fill:none;stroke:#2a7de1;stroke-width:29.17px;"/><path d="M368.703,562.428l-290.989,0" style="fill:none;stroke:#2a7de1;stroke-width:29.17px;"/><path d="M368.703,666.595l-290.989,-0" style="fill:none;stroke:#2a7de1;stroke-width:29.17px;"/><path d="M14.583,164.653l1460.57,-0" style="fill:none;stroke:#2a7de1;stroke-width:29.17px;"/><path d="M1475.15,65.139l-0,910.01c-0,27.903 -22.654,50.556 -50.557,50.556l-1359.46,0c-27.902,0 -50.556,-22.653 -50.556,-50.556l0,-910.01c0,-27.902 22.654,-50.556 50.556,-50.556l1359.46,0c27.903,0 50.557,22.654 50.557,50.556Z" style="fill:none;stroke:#2a7de1;stroke-width:29.17px;"/><path d="M880.347,295.677l117.851,117.851" style="fill:none;stroke:#f37820;stroke-width:41.67px;"/><path d="M998.198,413.528l-117.851,117.851" style="fill:none;stroke:#f37820;stroke-width:41.67px;"/><path d="M674.07,295.677l-117.852,117.851" style="fill:none;stroke:#f37820;stroke-width:41.67px;"/><path d="M556.218,413.528l117.852,117.851" style="fill:none;stroke:#f37820;stroke-width:41.67px;"/><path d="M809.003,295.677l-63.156,235.702" style="fill:none;stroke:#f37820;stroke-width:41.67px;"/></svg>