<?xml version="1.0" encoding="UTF-8" standalone="no"?><!DOCTYPE svg PUBLIC "-//W3C//DTD SVG 1.1//EN" "http://www.w3.org/Graphics/SVG/1.1/DTD/svg11.dtd"><svg width="100%" height="100%" viewBox="0 0 1330 1041" version="1.1" xmlns="http://www.w3.org/2000/svg" xmlns:xlink="http://www.w3.org/1999/xlink" xml:space="preserve" xmlns:serif="http://www.serif.com/" style="fill-rule:evenodd;clip-rule:evenodd;stroke-linecap:round;stroke-linejoin:round;stroke-miterlimit:1.5;"><path d="M15.179,433.262l892.857,-0" style="fill:none;stroke:#2a7de1;stroke-width:29.17px;"/><path d="M516.667,533.262l-145.834,-0" style="fill:none;stroke:#2a7de1;stroke-width:29.17px;"/><path d="M766.667,533.262l-145.834,-0" style="fill:none;stroke:#2a7de1;stroke-width:29.17px;"/><path d="M603.446,299.928l-476.19,0" style="fill:none;stroke:#2a7de1;stroke-width:41.67px;"/><path d="M266.667,533.262l-145.834,-0" style="fill:none;stroke:#2a7de1;stroke-width:29.17px;"/><path d="M14.583,164.653l1206.66,-0" style="fill:none;stroke:#2a7de1;stroke-width:29.17px;"/><path d="M879.951,849.928l-823.6,0c-23.052,0 -41.768,-18.715 -41.768,-41.767l0,-751.81c0,-23.052 18.716,-41.768 41.768,-41.768l1123.12,0c23.052,0 41.767,18.716 41.767,41.768l0,198.339" style="fill:none;stroke:#2a7de1;stroke-width:29.17px;"/><path d="M14.583,164.653l0,-108.302c0,-23.052 18.716,-41.768 41.768,-41.768l1123.12,0c23.052,0 41.767,18.716 41.767,41.768l0,108.302l-1206.66,-0Zm1146.73,-77.499c-0,-12.21 -9.913,-22.123 -22.123,-22.123l-506.647,-0c-12.21,-0 -22.123,9.913 -22.123,22.123c-0,12.21 9.913,22.123 22.123,22.123l506.647,-0c12.21,-0 22.123,-9.913 22.123,-22.123Z" style="fill:#2a7de1;"/><circle cx="1127.96" cy="429.469" r="137.603" style="fill:none;stroke:#f37820;stroke-width:41.67px;"/><path d="M1300.11,1020.17l-338.317,0c-3.018,-20.855 -9.274,-142.602 -9.274,-192.259c0,-121.303 24.364,-170.556 93.942,-197.043c19.977,-7.604 44.245,6.925 84.072,7.289c41.375,0.379 62.463,-14.283 82.334,-6.681c69.333,26.526 95.428,75.325 95.428,196.674c0,49.657 -4.48,183.9 -8.185,192.02Z" style="fill:none;stroke:#f37820;stroke-width:41.67px;"/></svg>