<svg baseProfile="full" height="100%" version="1.1" viewBox="25.0,5.0,475.0,120.0" width="100%" xmlns="http://www.w3.org/2000/svg" xmlns:ev="http://www.w3.org/2001/xml-events" xmlns:xlink="http://www.w3.org/1999/xlink"><defs /><g><line stroke="lightgrey" stroke-dasharray="2" x1="90.0" x2="89.0" y1="15.0" y2="15.0" /><line stroke="lightgrey" stroke-dasharray="2" x1="70.0" x2="89.0" y1="35.0" y2="35.0" /><line stroke="lightgrey" stroke-dasharray="2" x1="50.0" x2="89.0" y1="55.0" y2="55.0" /><line stroke="lightgrey" stroke-dasharray="2" x1="70.0" x2="89.0" y1="75.0" y2="75.0" /><line stroke="lightgrey" stroke-dasharray="2" x1="70.0" x2="69.0" y1="95.0" y2="95.0" /><line stroke="lightgrey" stroke-dasharray="2" x1="70.0" x2="69.0" y1="115.0" y2="115.0" /></g><g><line stroke="#c6c653" stroke-width="2.0" x1="55.0" x2="55.0" y1="35.0" y2="75.0" /><line stroke="#c65353" stroke-width="2.0" x1="75.0" x2="75.0" y1="15.0" y2="60.0" /><line stroke="#53c653" stroke-width="2.0" x1="35.0" x2="35.0" y1="55.0" y2="80.0" /><line stroke="#53c6c6" stroke-width="2.0" x1="55.0" x2="55.0" y1="75.0" y2="95.0" /><line stroke="#5353c6" stroke-width="2.0" x1="55.0" x2="55.0" y1="95.0" y2="115.0" /></g><g><line stroke="white" stroke-width="6.0" x1="35.0" x2="60.0" y1="55.0" y2="55.0" /><line stroke="white" stroke-width="6.0" x1="55.0" x2="60.0" y1="75.0" y2="75.0" /><line stroke="white" stroke-width="6.0" x1="50.0" x2="55.0" y1="95.0" y2="95.0" /></g><g><path d="M 75.0,40.0 a15.0,15.0 0 0,1 -15.0,15.0" fill="none" stroke="#c65353" stroke-width="2.0" /><line stroke="#c65353" stroke-width="2.0" x1="35.0" x2="60.0" y1="55.0" y2="55.0" /><path d="M 75.0,60.0 a15.0,15.0 0 0,1 -15.0,15.0" fill="none" stroke="#c65353" stroke-width="2.0" /><line stroke="#c65353" stroke-width="2.0" x1="55.0" x2="60.0" y1="75.0" y2="75.0" /><path d="M 35.0,80.0 a15.0,15.0 0 0,0 15.0,15.0" fill="none" stroke="#53c653" stroke-width="2.0" /><line stroke="#53c653" stroke-width="2.0" x1="50.0" x2="55.0" y1="95.0" y2="95.0" /></g><g><circle cx="75.0" cy="15.0" fill="#c65353" id="NdwaveoptimizationsymbolsnumbersIntegerVariableat0x779370070" r="6.0" stroke="white" stroke-width="2.0" /><text dominant-baseline="middle" fill="currentColor" font-family="sans-serif" font-size="inherit" x="95.0" y="15.0">&lt;dwave.optimization.symbols.numbers.IntegerVariable at 0x779370070&gt;</text><circle cx="55.0" cy="35.0" fill="#c6c653" id="NdwaveoptimizationsymbolsconstantsConstantat0x779007930" r="6.0" stroke="white" stroke-width="2.0" /><text dominant-baseline="middle" fill="currentColor" font-family="sans-serif" font-size="inherit" x="95.0" y="35.0">&lt;dwave.optimization.symbols.constants.Constant at 0x779007930&gt;</text><circle cx="35.0" cy="55.0" fill="#53c653" id="NdwaveoptimizationsymbolsunaryopSquareat0x778c1ad98" r="6.0" stroke="white" stroke-width="2.0" /><text dominant-baseline="middle" fill="currentColor" font-family="sans-serif" font-size="inherit" x="95.0" y="55.0">&lt;dwave.optimization.symbols.unaryop.Square at 0x778c1ad98&gt;</text><circle cx="55.0" cy="75.0" fill="#53c6c6" id="NdwaveoptimizationsymbolsbinaryopMultiplyat0x7790641a0" r="6.0" stroke="white" stroke-width="2.0" /><text dominant-baseline="middle" fill="currentColor" font-family="sans-serif" font-size="inherit" x="95.0" y="75.0">&lt;dwave.optimization.symbols.binaryop.Multiply at 0x7790641a0&gt;</text><circle cx="55.0" cy="95.0" fill="#5353c6" id="NdwaveoptimizationsymbolsbinaryopSubtractat0x77795c1a0" r="6.0" stroke="white" stroke-width="2.0" /><text dominant-baseline="middle" fill="currentColor" font-family="sans-serif" font-size="inherit" x="75.0" y="95.0">&lt;dwave.optimization.symbols.binaryop.Subtract at 0x77795c1a0&gt;</text><circle cx="55.0" cy="115.0" fill="#c653c6" id="Nminimize" r="6.0" stroke="white" stroke-width="2.0" /><text dominant-baseline="middle" fill="currentColor" font-family="sans-serif" font-size="inherit" x="75.0" y="115.0">minimize</text></g></svg>