<?xml version="1.0" encoding="UTF-8" standalone="no"?><!DOCTYPE svg PUBLIC "-//W3C//DTD SVG 1.1//EN" "http://www.w3.org/Graphics/SVG/1.1/DTD/svg11.dtd"><svg width="100%" height="100%" viewBox="0 0 1589 1042" version="1.1" xmlns="http://www.w3.org/2000/svg" xmlns:xlink="http://www.w3.org/1999/xlink" xml:space="preserve" xmlns:serif="http://www.serif.com/" style="fill-rule:evenodd;clip-rule:evenodd;stroke-linecap:round;stroke-linejoin:round;stroke-miterlimit:1.5;"><circle cx="1010.42" cy="895.833" r="131.25" style="fill:#2a7de1;stroke:#2a7de1;stroke-width:29.17px;"/><path d="M1442.71,0c80.488,0 145.834,65.346 145.834,145.833c-0,80.488 -65.346,145.834 -145.834,145.834c-80.487,-0 -145.833,-65.346 -145.833,-145.834c-0,-80.487 65.346,-145.833 145.833,-145.833Zm0,41.667c-57.491,-0 -104.166,46.675 -104.166,104.166c-0,57.491 46.675,104.167 104.166,104.167c57.491,-0 104.167,-46.676 104.167,-104.167c-0,-57.491 -46.676,-104.166 -104.167,-104.166Z" style="fill:#2a7de1;"/><path d="M145.833,750c80.488,0 145.834,65.346 145.834,145.833c-0,80.488 -65.346,145.834 -145.834,145.834c-80.487,-0 -145.833,-65.346 -145.833,-145.834c-0,-80.487 65.346,-145.833 145.833,-145.833Zm0,41.667c-57.491,-0 -104.166,46.675 -104.166,104.166c-0,57.491 46.675,104.167 104.166,104.167c57.491,0 104.167,-46.676 104.167,-104.167c0,-57.491 -46.676,-104.166 -104.167,-104.166Z" style="fill:#f37820;"/><circle cx="578.125" cy="145.833" r="145.833" style="fill:#f37820;"/><path d="M578.125,0c80.488,0 145.833,65.346 145.833,145.833c0,80.488 -65.345,145.834 -145.833,145.834c-80.488,-0 -145.833,-65.346 -145.833,-145.834c-0,-80.487 65.345,-145.833 145.833,-145.833Zm-0,50c-52.892,-0 -95.833,42.941 -95.833,95.833c-0,52.892 42.941,95.834 95.833,95.834c52.892,-0 95.833,-42.942 95.833,-95.834c0,-52.892 -42.941,-95.833 -95.833,-95.833Z" style="fill:#f37820;"/><g><path d="M454.044,350.506l-212.213,367.564" style="fill:none;stroke:#f37820;stroke-width:33.33px;"/><path d="M389.118,345.111l80.494,-21.568" style="fill:none;stroke:#f37820;stroke-width:33.33px;"/><path d="M469.612,323.543l21.568,80.493" style="fill:none;stroke:#f37820;stroke-width:33.33px;"/></g><g><path d="M701.447,350.506l212.213,367.564" style="fill:none;stroke:#2a7de1;stroke-width:33.33px;"/><path d="M766.373,345.111l-80.494,-21.568" style="fill:none;stroke:#2a7de1;stroke-width:33.33px;"/><path d="M685.879,323.543l-21.568,80.493" style="fill:none;stroke:#2a7de1;stroke-width:33.33px;"/></g><g><path d="M1318.87,350.506l-212.213,367.564" style="fill:none;stroke:#2a7de1;stroke-width:33.33px;"/><path d="M1253.95,345.111l80.493,-21.568" style="fill:none;stroke:#2a7de1;stroke-width:33.33px;"/><path d="M1334.44,323.543l21.569,80.493" style="fill:none;stroke:#2a7de1;stroke-width:33.33px;"/></g></svg>