<?xml version="1.0" encoding="UTF-8" standalone="no"?><!DOCTYPE svg PUBLIC "-//W3C//DTD SVG 1.1//EN" "http://www.w3.org/Graphics/SVG/1.1/DTD/svg11.dtd"><svg width="100%" height="100%" viewBox="0 0 1042 1042" version="1.1" xmlns="http://www.w3.org/2000/svg" xmlns:xlink="http://www.w3.org/1999/xlink" xml:space="preserve" xmlns:serif="http://www.serif.com/" style="fill-rule:evenodd;clip-rule:evenodd;stroke-linecap:round;stroke-linejoin:round;stroke-miterlimit:1.5;"><path d="M1027.08,785.97l0,211.25c0,16.442 -13.349,29.792 -29.791,29.792l-952.917,-0c-16.442,-0 -29.792,-13.35 -29.792,-29.792l0,-211.25c0,-16.443 13.35,-29.792 29.792,-29.792l952.917,0c16.442,0 29.791,13.349 29.791,29.792Z" style="fill:none;stroke:#2a7de1;stroke-width:29.17px;"/><path d="M1027.08,420.345l0,211.25c0,16.442 -13.349,29.792 -29.791,29.792l-952.917,-0c-16.442,-0 -29.792,-13.35 -29.792,-29.792l0,-211.25c0,-16.443 13.35,-29.792 29.792,-29.792l952.917,0c16.442,0 29.791,13.349 29.791,29.792Z" style="fill:none;stroke:#2a7de1;stroke-width:29.17px;"/><path d="M1027.08,44.375l0,211.25c0,16.442 -13.349,29.792 -29.791,29.792l-952.917,-0c-16.442,-0 -29.792,-13.35 -29.792,-29.792l0,-211.25c0,-16.442 13.35,-29.792 29.792,-29.792l952.917,0c16.442,0 29.791,13.35 29.791,29.792Z" style="fill:none;stroke:#2a7de1;stroke-width:29.17px;"/><path d="M517.097,455.126c0.702,-1.422 2.15,-2.323 3.736,-2.323c1.586,0 3.035,0.901 3.737,2.323c7.095,14.377 21.817,44.207 21.817,44.207c-0,-0 32.919,4.783 48.785,7.088c1.569,0.228 2.873,1.328 3.363,2.836c0.49,1.509 0.082,3.164 -1.054,4.271c-11.48,11.191 -35.301,34.41 -35.301,34.41c-0,0 5.623,32.787 8.333,48.588c0.268,1.563 -0.374,3.143 -1.657,4.075c-1.283,0.932 -2.984,1.055 -4.388,0.317c-14.191,-7.46 -43.635,-22.94 -43.635,-22.94c0,0 -29.444,15.48 -43.634,22.94c-1.404,0.738 -3.105,0.615 -4.388,-0.317c-1.283,-0.932 -1.926,-2.512 -1.658,-4.075c2.71,-15.801 8.334,-48.588 8.334,-48.588c-0,0 -23.821,-23.219 -35.301,-34.41c-1.136,-1.107 -1.545,-2.762 -1.055,-4.271c0.491,-1.508 1.795,-2.608 3.364,-2.836c15.865,-2.305 48.785,-7.088 48.785,-7.088c-0,-0 14.722,-29.83 21.817,-44.207Z" style="fill:none;stroke:#2a7de1;stroke-width:29.17px;"/><path d="M200.802,819.621c0.702,-1.422 2.151,-2.323 3.737,-2.323c1.586,0 3.034,0.901 3.736,2.323c7.095,14.376 21.817,44.206 21.817,44.206c0,0 32.92,4.784 48.785,7.089c1.569,0.228 2.873,1.327 3.364,2.836c0.49,1.508 0.081,3.164 -1.055,4.271c-11.48,11.191 -35.301,34.41 -35.301,34.41c0,0 5.624,32.786 8.334,48.588c0.268,1.563 -0.375,3.143 -1.658,4.075c-1.283,0.932 -2.984,1.055 -4.388,0.317c-14.19,-7.46 -43.634,-22.94 -43.634,-22.94c-0,0 -29.444,15.48 -43.635,22.94c-1.404,0.738 -3.105,0.615 -4.388,-0.317c-1.283,-0.932 -1.925,-2.512 -1.657,-4.075c2.71,-15.802 8.333,-48.588 8.333,-48.588c0,0 -23.821,-23.219 -35.301,-34.41c-1.136,-1.107 -1.544,-2.763 -1.054,-4.271c0.49,-1.509 1.794,-2.608 3.363,-2.836c15.866,-2.305 48.785,-7.089 48.785,-7.089c0,0 14.722,-29.83 21.817,-44.206Z" style="fill:none;stroke:#2a7de1;stroke-width:29.17px;"/><path d="M200.802,78.441c0.702,-1.422 2.151,-2.322 3.737,-2.322c1.586,-0 3.034,0.9 3.736,2.322c7.095,14.377 21.817,44.207 21.817,44.207c0,-0 32.92,4.783 48.785,7.089c1.569,0.228 2.873,1.327 3.364,2.835c0.49,1.509 0.081,3.165 -1.055,4.272c-11.48,11.19 -35.301,34.41 -35.301,34.41c0,-0 5.624,32.786 8.334,48.587c0.268,1.563 -0.375,3.143 -1.658,4.075c-1.283,0.933 -2.984,1.056 -4.388,0.318c-14.19,-7.461 -43.634,-22.94 -43.634,-22.94c-0,-0 -29.444,15.479 -43.635,22.94c-1.404,0.738 -3.105,0.615 -4.388,-0.318c-1.283,-0.932 -1.925,-2.512 -1.657,-4.075c2.71,-15.801 8.333,-48.587 8.333,-48.587c0,-0 -23.821,-23.22 -35.301,-34.41c-1.136,-1.107 -1.544,-2.763 -1.054,-4.272c0.49,-1.508 1.794,-2.607 3.363,-2.835c15.866,-2.306 48.785,-7.089 48.785,-7.089c0,-0 14.722,-29.83 21.817,-44.207Z" style="fill:none;stroke:#2a7de1;stroke-width:29.17px;"/><circle cx="838.095" cy="150" r="78.646" style="fill:none;stroke:#f37820;stroke-width:29.17px;"/><circle cx="204.539" cy="525.97" r="78.646" style="fill:none;stroke:#f37820;stroke-width:29.17px;"/><circle cx="520.833" cy="891.595" r="78.646" style="fill:none;stroke:#f37820;stroke-width:29.17px;"/><path d="M586.979,71.354c3.315,0 6.495,1.317 8.839,3.661c2.344,2.345 3.661,5.524 3.661,8.839l0,132.292c0,3.315 -1.317,6.494 -3.661,8.839c-2.344,2.344 -5.524,3.661 -8.839,3.661l-132.291,-0c-3.316,-0 -6.495,-1.317 -8.839,-3.661c-2.345,-2.345 -3.662,-5.524 -3.662,-8.839l0,-132.292c0,-3.315 1.317,-6.494 3.662,-8.839c2.344,-2.344 5.523,-3.661 8.839,-3.661l132.291,0Z" style="fill:none;stroke:#2a7de1;stroke-width:29.17px;"/><path d="M904.241,447.324c3.315,0 6.495,1.317 8.839,3.661c2.344,2.344 3.661,5.524 3.661,8.839l0,132.292c0,3.315 -1.317,6.494 -3.661,8.839c-2.344,2.344 -5.524,3.661 -8.839,3.661l-132.292,-0c-3.315,-0 -6.494,-1.317 -8.838,-3.661c-2.345,-2.345 -3.662,-5.524 -3.662,-8.839l0,-132.292c0,-3.315 1.317,-6.495 3.662,-8.839c2.344,-2.344 5.523,-3.661 8.838,-3.661l132.292,0Z" style="fill:none;stroke:#2a7de1;stroke-width:29.17px;"/><path d="M904.241,812.949c3.315,0 6.495,1.317 8.839,3.661c2.344,2.344 3.661,5.524 3.661,8.839l0,132.292c0,3.315 -1.317,6.494 -3.661,8.839c-2.344,2.344 -5.524,3.661 -8.839,3.661l-132.292,-0c-3.315,-0 -6.494,-1.317 -8.838,-3.661c-2.345,-2.345 -3.662,-5.524 -3.662,-8.839l0,-132.292c0,-3.315 1.317,-6.495 3.662,-8.839c2.344,-2.344 5.523,-3.661 8.838,-3.661l132.292,0Z" style="fill:none;stroke:#2a7de1;stroke-width:29.17px;"/></svg>