<?xml version="1.0" encoding="UTF-8" standalone="no"?><!DOCTYPE svg PUBLIC "-//W3C//DTD SVG 1.1//EN" "http://www.w3.org/Graphics/SVG/1.1/DTD/svg11.dtd"><svg width="100%" height="100%" viewBox="0 0 1043 1042" version="1.1" xmlns="http://www.w3.org/2000/svg" xmlns:xlink="http://www.w3.org/1999/xlink" xml:space="preserve" xmlns:serif="http://www.serif.com/" style="fill-rule:evenodd;clip-rule:evenodd;stroke-linecap:round;stroke-linejoin:round;stroke-miterlimit:1.5;"><path d="M14.583,14.583l0,1012.5" style="fill:none;stroke:#2a7de1;stroke-width:29.17px;"/><path d="M1027.4,760.687l-1012.5,0" style="fill:none;stroke:#2a7de1;stroke-width:29.17px;"/><path d="M109.518,105.049c-3.356,15.003 -6.451,464.169 130.77,476.975c113.272,10.571 127.581,-219.026 224.08,-218.238c170.858,1.397 104.782,567.577 330.42,567.894c191.819,0.268 227.37,-544.142 227.365,-579.591" style="fill:none;stroke:#2a7de1;stroke-width:41.67px;"/><path d="M560.417,291.32c41.736,31.495 60.428,63.73 78.694,99.843c26.687,52.76 41.099,121.734 45.822,165.653" style="fill:none;stroke:#f37820;stroke-width:29.17px;"/><path d="M629.665,511.273c15.314,17.819 37.914,38.437 54.629,55.457c8.541,-13.304 27.385,-42.498 41.761,-66.121" style="fill:none;stroke:#f37820;stroke-width:29.17px;"/><path d="M840.581,979.197l-95.208,-95.208" style="fill:none;stroke:#f37820;stroke-width:33.33px;"/><path d="M745.373,979.197l95.208,-95.208" style="fill:none;stroke:#f37820;stroke-width:33.33px;"/></svg>