<?xml version="1.0" encoding="UTF-8" standalone="no"?><!DOCTYPE svg PUBLIC "-//W3C//DTD SVG 1.1//EN" "http://www.w3.org/Graphics/SVG/1.1/DTD/svg11.dtd"><svg width="100%" height="100%" viewBox="0 0 724 1042" version="1.1" xmlns="http://www.w3.org/2000/svg" xmlns:xlink="http://www.w3.org/1999/xlink" xml:space="preserve" xmlns:serif="http://www.serif.com/" style="fill-rule:evenodd;clip-rule:evenodd;stroke-linecap:round;stroke-linejoin:round;stroke-miterlimit:1.5;"><path d="M258.891,363.173l-78.939,78.939" style="fill:none;stroke:#f37820;stroke-width:41.67px;"/><path d="M179.952,442.112l-37.81,-37.81" style="fill:none;stroke:#f37820;stroke-width:41.67px;"/><path d="M258.891,541.912l-78.939,78.939" style="fill:none;stroke:#f37820;stroke-width:41.67px;"/><path d="M179.952,620.851l-37.81,-37.809" style="fill:none;stroke:#f37820;stroke-width:41.67px;"/><path d="M258.891,718.783l-78.939,78.939" style="fill:none;stroke:#f37820;stroke-width:41.67px;"/><path d="M179.952,797.722l-37.81,-37.809" style="fill:none;stroke:#f37820;stroke-width:41.67px;"/><path d="M560.834,404.302l-224.997,0" style="fill:none;stroke:#f37820;stroke-width:41.67px;"/><path d="M560.834,581.382l-224.997,-0" style="fill:none;stroke:#f37820;stroke-width:41.67px;"/><path d="M560.834,758.253l-224.997,-0" style="fill:none;stroke:#f37820;stroke-width:41.67px;"/><circle cx="372.321" cy="76.388" r="20.833" style="fill:#2a7de1;"/><path d="M603.824,135.911l70.105,0c19.152,0 34.702,15.598 34.702,34.81l-0,821.764c-0,19.212 -15.55,34.81 -34.702,34.81l-624.643,-0c-19.153,-0 -34.703,-15.598 -34.703,-34.81l0,-821.764c0,-19.212 15.55,-34.81 34.703,-34.81l70.084,0" style="fill:none;stroke:#2a7de1;stroke-width:29.17px;"/><path d="M460.323,14.78c18.821,0.039 34.102,15.223 34.259,34.044c0.087,17.534 1.317,36.773 5.793,44.433c3.539,6.056 35.379,9.042 63.104,10.501c23.574,1.26 42.042,20.742 42.042,44.349c0.01,18.023 0.01,34.873 0.01,34.873c0,6.873 -5.468,12.452 -12.203,12.452l-463.442,0c-6.735,0 -12.203,-5.579 -12.203,-12.452l0,-34.909c0,-23.661 18.546,-43.169 42.176,-44.365c28.636,-1.43 61.959,-4.247 65.661,-9.633c4.439,-6.459 6.508,-27.577 7.471,-46.423c0.485,-9.185 4.631,-17.792 11.511,-23.896c6.881,-6.104 15.921,-9.195 25.098,-8.581c50.468,0.259 140.934,-0.134 190.723,-0.393Z" style="fill:none;stroke:#2a7de1;stroke-width:29.17px;"/></svg>