<?xml version="1.0" encoding="UTF-8" standalone="no"?><!DOCTYPE svg PUBLIC "-//W3C//DTD SVG 1.1//EN" "http://www.w3.org/Graphics/SVG/1.1/DTD/svg11.dtd"><svg width="100%" height="100%" viewBox="0 0 1368 1033" version="1.1" xmlns="http://www.w3.org/2000/svg" xmlns:xlink="http://www.w3.org/1999/xlink" xml:space="preserve" xmlns:serif="http://www.serif.com/" style="fill-rule:evenodd;clip-rule:evenodd;stroke-linecap:round;stroke-linejoin:round;stroke-miterlimit:1.5;"><g><path d="M1353.08,776.656l-697.585,0" style="fill:none;stroke:#2a7de1;stroke-width:29.17px;"/><circle cx="1004.28" cy="827.196" r="19.265" style="fill:#2a7de1;"/><path d="M1353.08,452.556l0,367.022c0,31.984 -25.967,57.951 -57.951,57.951l-581.683,0c-31.984,0 -57.951,-25.967 -57.951,-57.951l0,-367.022c0,-31.984 25.967,-57.951 57.951,-57.951l581.683,0c31.984,0 57.951,25.967 57.951,57.951Z" style="fill:none;stroke:#2a7de1;stroke-width:29.17px;"/><path d="M1075.71,884.578c0,0 -1.386,52.831 3.568,61.308c2.615,4.474 33.938,16.04 49.487,21.56c5.18,1.835 8.642,6.735 8.642,12.23c0,12.124 0,31.916 0,31.916c0,3.75 -2.984,6.795 -6.659,6.795l-252.922,0c-3.676,0 -6.66,-3.045 -6.66,-6.795l-0,-31.955c-0,-5.48 3.443,-10.369 8.603,-12.215c15.508,-5.561 46.802,-17.153 49.508,-21.09c4.674,-6.802 3.586,-61.754 3.586,-61.754" style="fill:none;stroke:#2a7de1;stroke-width:29.17px;"/></g><path d="M552.703,510.349c-233.491,-0.254 -465.578,-0.78 -460.316,-0.88c-65.039,-20.954 -83.269,-74.373 -76.468,-132.62c5.114,-43.797 58.378,-111.793 127.305,-99.875c-24.667,-61.983 -0.755,-120.541 59.336,-157.674c44.835,-27.705 93.012,-30.587 153.157,6.419c6.291,-53.188 71.638,-123.579 184.333,-109.252c110.108,13.998 154.123,96.458 160.414,149.646c46.486,-40.238 119.77,-68.313 200.094,-18.257c42.613,26.556 81.955,98.622 54.387,142.473c43.316,-7.49 79.084,7.329 105.435,32.745" style="fill:none;stroke:#2a7de1;stroke-width:29.17px;"/><g><path d="M497.179,788.307l48.272,54.65" style="fill:none;stroke:#f37820;stroke-width:33.33px;"/><path d="M545.328,843.377l-54.65,48.272" style="fill:none;stroke:#f37820;stroke-width:33.33px;"/><path d="M228.83,670.651l43.093,-58.82" style="fill:none;stroke:#f37820;stroke-width:33.33px;"/><path d="M271.923,611.831l58.82,43.093" style="fill:none;stroke:#f37820;stroke-width:33.33px;"/></g><g><path d="M1243.12,257.298l62.596,37.397" style="fill:none;stroke:#f37820;stroke-width:33.33px;"/><path d="M1306.11,294.497l37.398,-62.596" style="fill:none;stroke:#f37820;stroke-width:33.33px;"/><path d="M1061.15,35.643l-45.733,56.792" style="fill:none;stroke:#f37820;stroke-width:33.33px;"/><path d="M1015.42,92.435l56.792,45.733" style="fill:none;stroke:#f37820;stroke-width:33.33px;"/></g><path d="M1036.52,84.658c158.265,5.771 229.002,50.084 267.417,203.487" style="fill:none;stroke:#f37820;stroke-width:33.33px;"/><path d="M505.587,841.367c-131.047,-8.85 -216.179,-93.962 -228.701,-200.561" style="fill:none;stroke:#f37820;stroke-width:33.33px;"/></svg>