<?xml version="1.0" encoding="UTF-8" standalone="no"?><!DOCTYPE svg PUBLIC "-//W3C//DTD SVG 1.1//EN" "http://www.w3.org/Graphics/SVG/1.1/DTD/svg11.dtd"><svg width="100%" height="100%" viewBox="0 0 1092 1042" version="1.1" xmlns="http://www.w3.org/2000/svg" xmlns:xlink="http://www.w3.org/1999/xlink" xml:space="preserve" xmlns:serif="http://www.serif.com/" style="fill-rule:evenodd;clip-rule:evenodd;stroke-linecap:round;stroke-linejoin:round;"><path d="M866.751,224.921c32.522,32.522 32.522,85.33 0,117.852c-32.522,32.521 -85.329,32.521 -117.851,-0c-32.522,-32.522 -32.522,-85.33 -0,-117.852c32.522,-32.521 85.329,-32.521 117.851,0Z" style="fill:none;stroke:#2a7de1;stroke-width:33.33px;"/><path d="M566.792,772.913c0,0 -13.405,126.046 -20.646,194.136c-0.726,6.828 2.809,13.402 8.905,16.561c6.096,3.159 13.505,2.256 18.664,-2.274c55.237,-48.499 166.59,-146.269 210.535,-184.854c11.851,-10.405 19.33,-24.907 20.938,-40.596c5.201,-50.78 16.709,-163.119 16.709,-163.119" style="fill:none;stroke:#2a7de1;stroke-width:33.33px;"/><path d="M318.791,523.798c0,-0 -126.009,13.796 -194.203,21.263c-6.834,0.748 -13.427,-2.777 -16.599,-8.876c-3.173,-6.1 -2.275,-13.522 2.261,-18.688c48.544,-55.288 146.174,-166.482 184.724,-210.387c10.406,-11.851 24.908,-19.331 40.597,-20.938c50.78,-5.202 163.118,-16.709 163.118,-16.709" style="fill:none;stroke:#2a7de1;stroke-width:33.33px;"/><path d="M511.771,803.708l-223.807,-223.807c20.776,-33.033 85.121,-176.404 210.59,-310.873c107.321,-115.019 248.732,-195.742 362.661,-229.221c74.795,-21.979 137.11,-24.268 173.972,-22.779c21.38,1.011 38.514,18.062 39.629,39.437c1.674,36.868 -0.341,98.912 -22.254,171.698c-34.242,113.741 -115.362,257.136 -229.918,364.956c-151.693,142.774 -234.214,162.376 -310.873,210.589Z" style="fill:none;stroke:#2a7de1;stroke-width:33.33px;"/><path d="M470.349,894.036c-1.733,3.683 -5.151,6.292 -9.161,6.992c-4.01,0.699 -8.11,-0.597 -10.988,-3.475c-46.463,-46.463 -208.144,-208.144 -254.607,-254.607c-2.878,-2.878 -4.175,-6.978 -3.475,-10.988c0.7,-4.01 3.309,-7.428 6.992,-9.161c29.579,-13.919 89.591,-42.159 89.591,-42.159l223.807,223.807c0,0 -28.24,60.012 -42.159,89.591Z" style="fill:none;stroke:#2a7de1;stroke-width:33.33px;"/><path d="M27.102,1011.41c-1.739,-0.255 -3.127,-1.581 -3.462,-3.306c-0.334,-1.726 0.459,-3.475 1.977,-4.36c10.251,-5.475 24.76,-14.179 30.571,-22.156c10.208,-14.013 22.516,-42.59 28.673,-62.763c17.191,-56.333 43.781,-97.447 67.898,-114.092c42.21,-29.131 98.463,-25.955 130.672,13.956c32.208,39.911 34.648,82.662 3.785,128.941c-11.214,16.816 -29.706,36.783 -73.025,58.96c-26.811,13.725 -62.912,23.275 -89.19,19.913c-6.393,-0.819 14.479,-15.253 22.698,-28.775c9.835,-16.179 10.176,-47.133 5.681,-40.692c-13.761,19.725 -43.818,40.521 -69.386,48.288c-24.05,7.305 -43.294,7.59 -56.892,6.086Z" style="fill:none;stroke:#f37820;stroke-width:29.17px;"/><path d="M168.881,913.022c-0.134,3.01 1.387,5.852 3.965,7.41c2.578,1.559 5.801,1.584 8.404,0.067c5.343,-2.885 12.694,-6.064 21.801,-8.316c19.401,-4.798 41.167,-11.628 52.516,-20.06c17.437,-12.953 21.076,-37.626 8.123,-55.062c-12.954,-17.437 -41.712,-17.866 -61.56,-9.043c-10.815,4.808 -17.605,11.75 -21.565,16.405c-4.937,5.802 -6.941,11.356 -5.614,16.393c0.632,2.4 4.935,4.483 6.491,4.149c3.39,-0.73 4.914,-0.821 10.089,-2.576c7.105,-2.411 10.145,-0.271 9.496,2.375c-1.779,7.248 -13.372,13.193 -21.081,22.093c-8.172,9.433 -10.696,18.828 -11.065,26.165Z" style="fill:#f37820;"/></svg>