<?xml version="1.0" encoding="UTF-8" standalone="no"?><!DOCTYPE svg PUBLIC "-//W3C//DTD SVG 1.1//EN" "http://www.w3.org/Graphics/SVG/1.1/DTD/svg11.dtd"><svg width="100%" height="100%" viewBox="0 0 1042 1041" version="1.1" xmlns="http://www.w3.org/2000/svg" xmlns:xlink="http://www.w3.org/1999/xlink" xml:space="preserve" xmlns:serif="http://www.serif.com/" style="fill-rule:evenodd;clip-rule:evenodd;stroke-linecap:round;stroke-linejoin:round;stroke-miterlimit:1.5;"><path d="M1027.08,450.028l0,540.702c0,19.343 -15.704,35.047 -35.046,35.047l-942.407,0c-19.343,0 -35.047,-15.704 -35.047,-35.047l0,-630.84c0,-19.342 15.704,-35.046 35.047,-35.046l232.345,-0c29.048,-0 55.836,15.675 70.066,40.999c11.965,21.296 24.116,42.922 24.116,42.922l612.087,-0c19.343,-0 38.839,21.92 38.839,41.263Z" style="fill:none;stroke:#2a7de1;stroke-width:29.17px;"/><path d="M623.972,598.876l117.851,117.852" style="fill:none;stroke:#f37820;stroke-width:41.67px;"/><path d="M741.823,716.728l-117.851,117.851" style="fill:none;stroke:#f37820;stroke-width:41.67px;"/><path d="M417.695,598.876l-117.851,117.852" style="fill:none;stroke:#f37820;stroke-width:41.67px;"/><path d="M299.844,716.728l117.851,117.851" style="fill:none;stroke:#f37820;stroke-width:41.67px;"/><path d="M552.629,598.876l-63.157,235.703" style="fill:none;stroke:#f37820;stroke-width:41.67px;"/><path d="M856.917,408.765l0,-248.277l-145.833,-145.905l-420.208,0c-16.443,0 -29.792,13.35 -29.792,29.792l-0,280.469" style="fill:none;stroke:#2a7de1;stroke-width:29.17px;"/><path d="M711.084,16.667l-0,125c0,11.506 9.327,20.833 20.833,20.833l125,0" style="fill:none;stroke:#2a7de1;stroke-width:29.17px;"/><path d="M635.551,137.5l-282.935,0" style="fill:none;stroke:#f37820;stroke-width:33.33px;"/><path d="M765.385,231.25l-412.769,0" style="fill:none;stroke:#f37820;stroke-width:33.33px;"/><path d="M769.552,325l-333.54,0" style="fill:none;stroke:#f37820;stroke-width:33.33px;"/></svg>