<?xml version="1.0" encoding="UTF-8" standalone="no"?><!DOCTYPE svg PUBLIC "-//W3C//DTD SVG 1.1//EN" "http://www.w3.org/Graphics/SVG/1.1/DTD/svg11.dtd"><svg width="100%" height="100%" viewBox="0 0 1060 1044" version="1.1" xmlns="http://www.w3.org/2000/svg" xmlns:xlink="http://www.w3.org/1999/xlink" xml:space="preserve" xmlns:serif="http://www.serif.com/" style="fill-rule:evenodd;clip-rule:evenodd;stroke-linecap:round;stroke-linejoin:round;stroke-miterlimit:1.5;"><path d="M168.796,416.454c0.702,-1.423 2.151,-2.323 3.737,-2.323c1.586,0 3.034,0.9 3.736,2.323c7.218,14.624 22.374,45.333 22.374,45.333c-0,-0 33.888,4.924 50.028,7.27c1.569,0.228 2.873,1.327 3.363,2.835c0.491,1.509 0.082,3.165 -1.054,4.272c-11.678,11.383 -36.201,35.287 -36.201,35.287c0,-0 5.789,33.752 8.546,49.826c0.268,1.563 -0.374,3.143 -1.657,4.075c-1.284,0.932 -2.985,1.055 -4.388,0.317c-14.436,-7.589 -44.747,-23.524 -44.747,-23.524c-0,-0 -30.311,15.935 -44.747,23.524c-1.404,0.738 -3.105,0.615 -4.388,-0.317c-1.283,-0.932 -1.926,-2.512 -1.658,-4.075c2.757,-16.074 8.546,-49.826 8.546,-49.826c0,-0 -24.522,-23.904 -36.2,-35.287c-1.136,-1.107 -1.545,-2.763 -1.055,-4.272c0.49,-1.508 1.794,-2.607 3.364,-2.835c16.139,-2.346 50.028,-7.27 50.028,-7.27c0,-0 15.156,-30.709 22.373,-45.333Z" style="fill:#f37820;stroke:#f37820;stroke-width:29.17px;"/><path d="M878.283,420.293c5.096,-3.679 11.975,-3.679 17.071,0c15.423,11.134 47.768,34.483 63.263,45.669c5.144,3.714 7.297,10.327 5.325,16.357c-5.914,18.087 -18.228,55.744 -24.126,73.778c-1.96,5.996 -7.553,10.051 -13.861,10.051c-19.106,-0 -59.167,-0 -78.273,-0c-6.308,-0 -11.901,-4.055 -13.861,-10.051c-5.898,-18.034 -18.212,-55.691 -24.126,-73.778c-1.972,-6.03 0.181,-12.643 5.325,-16.357c15.495,-11.186 47.84,-34.535 63.263,-45.669Z" style="fill:#f37820;stroke:#f37820;stroke-width:29.17px;"/><path d="M332.566,585.679c-0,54.925 -71.709,99.517 -160.033,99.517c-88.325,-0 -160.033,-44.592 -160.033,-99.517l320.066,0Z" style="fill:none;stroke:#2a7de1;stroke-width:25px;"/><path d="M1046.85,585.679c0,54.925 -71.708,99.517 -160.032,99.517c-88.325,-0 -160.033,-44.592 -160.033,-99.517l320.065,0Z" style="fill:none;stroke:#2a7de1;stroke-width:25px;"/><path d="M12.5,585.679l160.033,-416.257l160.033,416.257" style="fill:none;stroke:#2a7de1;stroke-width:25px;"/><path d="M726.786,585.679l160.033,-416.257l160.032,416.257" style="fill:none;stroke:#2a7de1;stroke-width:25px;"/><path d="M566.878,931.592c5.66,9.685 178.732,37.424 178.732,37.424l-0,48.388c-0,6.083 -4.841,11.023 -10.803,11.023l-410.263,-0c-5.962,-0 -10.802,-4.94 -10.802,-11.023l-0,-48.388c-0,0 172.876,-28.904 178.731,-37.424" style="fill:none;stroke:#2a7de1;stroke-width:29.17px;"/><path d="M492.473,931.592l0,-898.152c0,-10.407 8.335,-18.857 18.601,-18.857l37.203,0c10.266,0 18.601,8.45 18.601,18.857l0,898.152" style="fill:none;stroke:#2a7de1;stroke-width:29.17px;"/><path d="M566.878,89.957l378.777,0c8.213,0 14.881,6.668 14.881,14.881l-0,29.762c-0,8.213 -6.668,14.881 -14.881,14.881l-378.777,0" style="fill:none;stroke:#2a7de1;stroke-width:25px;"/><path d="M492.473,149.481l-378.776,0c-8.213,0 -14.881,-6.668 -14.881,-14.881l-0,-29.762c-0,-8.213 6.668,-14.881 14.881,-14.881l378.776,0" style="fill:none;stroke:#2a7de1;stroke-width:25px;"/></svg>