<svg xmlns="http://www.w3.org/2000/svg" viewBox="0 0 266.58 419.71"><defs><style>.cls-1{fill:#222;}.cls-2{fill:#2a7de1;}.cls-3{fill:#ff7006;}.cls-4{fill:#17bebb;}</style></defs><g id="Layer_2" data-name="Layer 2"><g id="Layer_1-2" data-name="Layer 1"><g id="Layer_2-2" data-name="Layer 2"><g id="Ocean"><g id="DWave"><path id="Dot_2" data-name="Dot 2" class="cls-1" d="M100.17,209.75a50.09,50.09,0,1,1-50.14-50h0a50,50,0,0,1,50.09,50h0Z"/><path id="Dot_1" data-name="Dot 1" class="cls-2" d="M100.17,50A50.09,50.09,0,1,1,50,0h0a50,50,0,0,1,50.09,50h0Z"/><path id="Dot_4" data-name="Dot 4" class="cls-3" d="M266.58,369.58a50.08,50.08,0,1,1-50.13-50h0A50.13,50.13,0,0,1,266.58,369.58Z"/><path id="Dot_3_Blue" data-name="Dot 3 Blue" class="cls-4" d="M266.58,209.75a50.08,50.08,0,1,1-50.08-50.08,50.08,50.08,0,0,1,50.08,50.08Z"/></g></g></g></g></g></svg>