<svg xmlns="http://www.w3.org/2000/svg" viewBox="0 0 659.44 84.93"><defs><style>.cls-1{fill:#222;}.cls-2{fill:#2a7de1;}</style></defs><g id="Layer_2" data-name="Layer 2"><g id="Advantage"><g id="DWave"><path id="Dwave_A" data-name="Dwave A" class="cls-1" d="M437.44,78.36a26,26,0,0,1-17.6,6.41H369.78a25.56,25.56,0,0,1-17.45-6.41,21,21,0,0,1-7.28-16.44V57.85a20.38,20.38,0,0,1,7.57-16.15A25,25,0,0,1,369.78,35h31.87V50.13H369.78a9.48,9.48,0,0,0-6,2.19A6.9,6.9,0,0,0,361,57.85v4.07c0,5.1,2.91,7.57,8.72,7.57H419.8c6,0,8.87-2.47,8.87-7.57v-39A6.81,6.81,0,0,0,426,17.55a9.3,9.3,0,0,0-6.11-2.33H346.51V.09h73.33A24.53,24.53,0,0,1,437,6.79c5.1,4.51,7.57,9.89,7.57,16.14v39C444.57,68.62,442.24,74.14,437.44,78.36Z"/><path id="Dwave_V" data-name="Dwave V" class="cls-1" d="M538,61.92c-3.92,15.28-12.07,22.85-24.73,22.85h-21.5c-12.66,0-20.8-7.57-24.73-22.85L451.17.09h17L483.45,59c1.74,7,5.38,10.48,10.62,10.48H511c5.37,0,9.16-3.49,10.91-10.48L537,.09h17Z"/><path id="Dwave_E" data-name="Dwave E" class="cls-1" d="M651.86,43.16a25.08,25.08,0,0,1-17.16,6.68h-32V34.57h32a9.47,9.47,0,0,0,5.82-2.18c1.89-1.6,2.91-3.35,2.91-5.38V22.93c0-5.08-2.91-7.71-8.73-7.71H584.5c-5.82,0-8.73,2.63-8.73,7.71V61.78a6.44,6.44,0,0,0,2.77,5.38,8.89,8.89,0,0,0,6,2.33H658V84.62H584.5a25.6,25.6,0,0,1-17.17-6.55,20.88,20.88,0,0,1-7.57-16.29V22.93a20.78,20.78,0,0,1,7.29-16.44A25.57,25.57,0,0,1,584.5.09h50.2a26.24,26.24,0,0,1,17.46,6.26,21.1,21.1,0,0,1,7.27,16.58V27C659.43,33.3,657,38.64,651.86,43.16Z"/><path id="Dot_2" data-name="Dot 2" class="cls-1" d="M140.1,42.3A10.1,10.1,0,1,1,130,32.21h0a10.09,10.09,0,0,1,10.1,10.08Z"/><path id="Dot_1" data-name="Dot 1" class="cls-1" d="M140.1,10.09A10.1,10.1,0,1,1,130,0h0a10.09,10.09,0,0,1,10.1,10.08Z"/><path id="Dot_4" data-name="Dot 4" class="cls-1" d="M173.66,74.53a10.1,10.1,0,1,1-10.11-10.09h0A10.11,10.11,0,0,1,173.66,74.53Z"/><path id="Dot_3_Blue" data-name="Dot 3 Blue" class="cls-2" d="M173.66,42.3a10.1,10.1,0,1,1-10.1-10.1,10.1,10.1,0,0,1,10.1,10.1Z"/><path id="Dwave_W" data-name="Dwave W" class="cls-1" d="M318,.09,302.93,58.77c-1.75,7-5.51,10.44-10.87,10.44H285.6c-5.22,0-9.28-3.72-10.9-10.45l-.17-.44c-4.06-13-15.89-11.85-15.89-11.85-12,.16-16,12.34-16,12.34-1.74,7-5.51,10.4-10.86,10.4h-6.46c-5.21,0-8.84-3.48-10.58-10.44L199.52.09h-17l15.79,61.58c3.92,15.22,12,22.75,24.63,22.75H234c12.17,0,20.15-7,24.21-21.18l.35-1.45c3.93,15.09,12.08,22.63,24.64,22.63h11.09c12.6,0,20.72-7.53,24.63-22.75L334.89.09Z"/><path id="Dwave_D" data-name="Dwave D" class="cls-1" d="M95.36,78.5a25.45,25.45,0,0,1-17.43,6.42H0V0H77.93a24.64,24.64,0,0,1,17,6.72,21,21,0,0,1,7.49,16.19V62C102.42,68.74,100.11,74.3,95.36,78.5ZM86.58,22.92a6.87,6.87,0,0,0-2.74-5.39,8.7,8.7,0,0,0-5.91-2.34H15.7V69.61H77.93c5.76,0,8.65-2.48,8.65-7.59Z"/></g></g></g></svg>