<svg xmlns="http://www.w3.org/2000/svg" viewBox="0 0 1316.46 179.02"><defs><style>.cls-1{fill:#2a7de1;}.cls-2{fill:#fff;}.cls-3{fill:#222;}</style></defs><g id="Layer_2" data-name="Layer 2"><g id="Ocean"><path class="cls-1" d="M988.28,114.74H914.92A7.75,7.75,0,0,1,910,113a5.28,5.28,0,0,1-2.18-4.28V70.35c0-2.76.8-5.93,7.06-5.93h73.36V46.57H914.92a26.49,26.49,0,0,0-18,6.62,21.91,21.91,0,0,0-7.6,17.16v38.32a21.43,21.43,0,0,0,7.88,16.87,25.81,25.81,0,0,0,17.74,6.91h73.36Z"/><path class="cls-1" d="M1074.61,98.11a25.36,25.36,0,0,0,17.53-6.89A21.53,21.53,0,0,0,1100,74.33v-4a22,22,0,0,0-7.52-17.17,26,26,0,0,0-17.82-6.62H1026.3a26.28,26.28,0,0,0-18,6.62c-4.89,4.36-7.37,10.14-7.37,17.17v38.06a21.91,21.91,0,0,0,7.78,16.86,24.84,24.84,0,0,0,17.55,6.92h72.24V114.47H1026.3a7.35,7.35,0,0,1-4.95-1.93,5.23,5.23,0,0,1-2.15-4.12V98.11ZM1019.2,70.36c0-2.93.85-5.91,7.1-5.91h48.31c6.18,0,7,3.15,7,5.91v4a5.22,5.22,0,0,1-2.11,4.23,7.61,7.61,0,0,1-4.86,1.83H1019.2Z"/><path class="cls-1" d="M1292.61,46.57h-67.16v85.7h17.9v-60c0-6.37,3-7.23,6-7.23h43.31a5.27,5.27,0,0,1,4.15,2.19,7.53,7.53,0,0,1,1.94,5v60.15h17.76V72.27a25.34,25.34,0,0,0-6.93-17.79C1304.88,49.23,1299.19,46.57,1292.61,46.57Z"/><path class="cls-1" d="M1204.89,53.5a25.26,25.26,0,0,0-17.74-6.93H1113.3V64.28h73.85a7.54,7.54,0,0,1,5,1.93,5.27,5.27,0,0,1,2.18,4.14V80.68h-56.09a25.78,25.78,0,0,0-17.72,6.89,21.42,21.42,0,0,0-7.9,16.88v4a21.93,21.93,0,0,0,7.6,17.16,26.46,26.46,0,0,0,18,6.61h74.5V70.35A21.79,21.79,0,0,0,1204.89,53.5Zm-73.7,51a5.27,5.27,0,0,1,2.14-4.24,7.81,7.81,0,0,1,4.93-1.83h56.09v10.05c0,2.93-.86,5.93-7.2,5.93h-48.89c-6.26,0-7.07-3.17-7.07-5.93Z"/><circle class="cls-1" cx="790.42" cy="89.51" r="89.51"/><path class="cls-2" d="M832.31,53.19a26.47,26.47,0,0,0-18-6.62H766.55a26.47,26.47,0,0,0-18,6.62,21.91,21.91,0,0,0-7.6,17.16v38.32a21.43,21.43,0,0,0,7.88,16.87,25.79,25.79,0,0,0,17.74,6.91h47.74A25.79,25.79,0,0,0,832,125.54a21.43,21.43,0,0,0,7.88-16.87V70.35A21.91,21.91,0,0,0,832.31,53.19Zm-11,55.48a5.28,5.28,0,0,1-2.18,4.28,7.75,7.75,0,0,1-4.88,1.79H766.55a7.75,7.75,0,0,1-4.88-1.79,5.28,5.28,0,0,1-2.18-4.28V70.35c0-2.76.8-5.93,7.06-5.93h47.74c6.26,0,7.06,3.17,7.06,5.93Z"/><g id="DWave"><path id="Dwave_A" data-name="Dwave A" class="cls-3" d="M437.44,125.06a26,26,0,0,1-17.6,6.41H369.78a25.56,25.56,0,0,1-17.45-6.41,21,21,0,0,1-7.28-16.44v-4.07a20.38,20.38,0,0,1,7.57-16.15,25,25,0,0,1,17.16-6.7h31.87V96.83H369.78a9.48,9.48,0,0,0-6,2.19,6.9,6.9,0,0,0-2.76,5.53v4.07c0,5.1,2.91,7.57,8.72,7.57H419.8c6,0,8.87-2.47,8.87-7.57v-39A6.81,6.81,0,0,0,426,64.25a9.3,9.3,0,0,0-6.11-2.33H346.51V46.79h73.33A24.53,24.53,0,0,1,437,53.49c5.1,4.51,7.57,9.89,7.57,16.14v39C444.57,115.32,442.24,120.84,437.44,125.06Z"/><path id="Dwave_V" data-name="Dwave V" class="cls-3" d="M538,108.62c-3.92,15.28-12.07,22.85-24.73,22.85h-21.5c-12.66,0-20.8-7.57-24.73-22.85L451.17,46.79h17l15.28,58.92c1.74,7,5.38,10.48,10.62,10.48H511c5.37,0,9.16-3.49,10.91-10.48L537,46.79h17Z"/><path id="Dwave_E" data-name="Dwave E" class="cls-3" d="M651.86,89.86a25.08,25.08,0,0,1-17.16,6.68h-32V81.27h32a9.47,9.47,0,0,0,5.82-2.18c1.89-1.6,2.91-3.35,2.91-5.38V69.63c0-5.08-2.91-7.71-8.73-7.71H584.5c-5.82,0-8.73,2.63-8.73,7.71v38.85a6.44,6.44,0,0,0,2.77,5.38,8.89,8.89,0,0,0,6,2.33H658v15.13H584.5a25.6,25.6,0,0,1-17.17-6.55,20.88,20.88,0,0,1-7.57-16.29V69.63a20.78,20.78,0,0,1,7.29-16.44,25.57,25.57,0,0,1,17.45-6.4h50.2a26.24,26.24,0,0,1,17.46,6.26,21.1,21.1,0,0,1,7.27,16.58v4.08C659.43,80,657,85.34,651.86,89.86Z"/><path id="Dot_2" data-name="Dot 2" class="cls-3" d="M140.1,89A10.1,10.1,0,1,1,130,78.91h0A10.09,10.09,0,0,1,140.1,89Z"/><path id="Dot_1" data-name="Dot 1" class="cls-3" d="M140.1,56.79A10.1,10.1,0,1,1,130,46.7h0a10.09,10.09,0,0,1,10.1,10.08Z"/><path id="Dot_4" data-name="Dot 4" class="cls-3" d="M173.66,121.23a10.1,10.1,0,1,1-10.11-10.09h0A10.11,10.11,0,0,1,173.66,121.23Z"/><path id="Dot_3_Blue" data-name="Dot 3 Blue" class="cls-1" d="M173.66,89a10.1,10.1,0,1,1-10.1-10.1A10.1,10.1,0,0,1,173.66,89Z"/><path id="Dwave_W" data-name="Dwave W" class="cls-3" d="M318,46.79l-15.07,58.68c-1.75,7-5.51,10.44-10.87,10.44H285.6c-5.22,0-9.28-3.72-10.9-10.45l-.17-.44c-4.06-13-15.89-11.85-15.89-11.85-12,.16-16,12.34-16,12.34-1.74,7-5.51,10.4-10.86,10.4h-6.46c-5.21,0-8.84-3.48-10.58-10.44L199.52,46.79h-17l15.79,61.58c3.92,15.22,12,22.75,24.63,22.75H234c12.17,0,20.15-7,24.21-21.18l.35-1.45c3.93,15.09,12.08,22.63,24.64,22.63h11.09c12.6,0,20.72-7.53,24.63-22.75l15.94-61.58Z"/><path id="Dwave_D" data-name="Dwave D" class="cls-3" d="M95.36,125.2a25.45,25.45,0,0,1-17.43,6.42H0V46.71H77.93a24.64,24.64,0,0,1,17,6.72,21,21,0,0,1,7.49,16.19v39.1C102.42,115.44,100.11,121,95.36,125.2ZM86.58,69.62a6.87,6.87,0,0,0-2.74-5.39,8.7,8.7,0,0,0-5.91-2.34H15.7v54.42H77.93c5.76,0,8.65-2.48,8.65-7.59Z"/></g></g></g></svg>