<?xml version="1.0" encoding="UTF-8"?><svg xmlns="http://www.w3.org/2000/svg" viewBox="0 0 659.44 84.93"><defs><style>.m{fill:#fff;}.n{fill:#2a7de1;}</style></defs><g id="a"/><g id="b"><g id="c"><path id="d" class="m" d="M651.86,43.16c-4.67,4.32-10.8,6.71-17.16,6.68h-32v-15.27h32c2.13-.05,4.18-.82,5.82-2.18,1.89-1.6,2.91-3.35,2.91-5.38v-4.08c0-5.08-2.91-7.71-8.73-7.71h-50.2c-5.82,0-8.73,2.63-8.73,7.71V61.78c-.03,2.14,1.01,4.16,2.77,5.38,1.64,1.5,3.78,2.33,6,2.33h73.46v15.13h-73.5c-6.34,.02-12.45-2.32-17.17-6.55-4.85-4.01-7.63-10-7.57-16.29V22.93c-.19-6.3,2.49-12.35,7.29-16.44,4.81-4.25,11.04-6.53,17.45-6.4h50.2c6.39-.11,12.6,2.12,17.46,6.26,4.79,4.15,7.46,10.24,7.27,16.58v4.07c0,6.3-2.43,11.64-7.57,16.16Z"/><path id="e" class="m" d="M538,61.92c-3.92,15.28-12.07,22.85-24.73,22.85h-21.5c-12.66,0-20.8-7.57-24.73-22.85L451.17,.09h17l15.28,58.91c1.74,7,5.38,10.48,10.62,10.48h16.93c5.37,0,9.16-3.49,10.91-10.48L537,.09h17l-16,61.83Z"/><path id="f" class="m" d="M437.44,78.36c-4.87,4.25-11.14,6.53-17.6,6.41h-50.06c-6.42,.13-12.64-2.16-17.45-6.41-4.77-4.11-7.44-10.15-7.28-16.44v-4.07c-.09-6.26,2.7-12.22,7.57-16.15,4.66-4.34,10.8-6.73,17.16-6.7h31.87v15.13h-31.87c-2.19,.01-4.31,.79-6,2.19-1.75,1.3-2.78,3.35-2.78,5.53v4.07c0,5.1,2.91,7.57,8.72,7.57h50.08c6,0,8.87-2.47,8.87-7.57V22.92c-.01-2.11-1-4.09-2.67-5.37-1.69-1.49-3.86-2.32-6.11-2.33h-73.38V.09h73.33c6.37-.08,12.53,2.32,17.16,6.7,5.1,4.51,7.57,9.89,7.57,16.14V61.93c0,6.69-2.33,12.21-7.13,16.43Z"/><path id="g" class="m" d="M173.66,74.53c0,5.58-4.51,10.1-10.09,10.11s-10.1-4.51-10.11-10.09,4.51-10.1,10.09-10.11h0c5.58,0,10.1,4.51,10.11,10.09Z"/><path id="h" class="n" d="M173.66,42.3c0,5.58-4.52,10.1-10.1,10.1s-10.1-4.52-10.1-10.1,4.52-10.1,10.1-10.1,10.1,4.52,10.1,10.1h0Z"/><path id="i" class="m" d="M140.1,42.3c0,5.58-4.51,10.1-10.09,10.11-5.58,0-10.1-4.51-10.11-10.09,0-5.58,4.51-10.1,10.09-10.11h0c5.57,0,10.09,4.51,10.1,10.08h0Z"/><path id="j" class="m" d="M140.1,10.09c0,5.58-4.51,10.1-10.09,10.11-5.58,0-10.1-4.51-10.11-10.09C119.89,4.53,124.41,0,129.99,0h0c5.57,0,10.09,4.51,10.1,10.08h0Z"/><path id="k" class="m" d="M318,.09l-15.07,58.68c-1.75,7-5.51,10.44-10.87,10.44h-6.46c-5.22,0-9.28-3.72-10.9-10.45l-.17-.44c-4.06-13-15.89-11.85-15.89-11.85-12,.16-16,12.34-16,12.34-1.74,7-5.51,10.4-10.86,10.4h-6.46c-5.21,0-8.84-3.48-10.58-10.44L199.52,.09h-17l15.79,61.58c3.92,15.22,12,22.75,24.63,22.75h11.06c12.17,0,20.15-7,24.21-21.18l.35-1.45c3.93,15.09,12.08,22.63,24.64,22.63h11.09c12.6,0,20.72-7.53,24.63-22.75L334.89,.09h-16.89Z"/><path id="l" class="m" d="M95.36,78.5c-4.79,4.26-11.02,6.55-17.43,6.42H0V0H77.93c6.32-.02,12.4,2.38,17,6.72,4.78,4.02,7.52,9.95,7.49,16.19V62c0,6.74-2.31,12.3-7.06,16.5Zm-8.78-55.58c-.03-2.12-1.04-4.11-2.74-5.39-1.6-1.5-3.72-2.33-5.91-2.34H15.7v54.42h62.23c5.76,0,8.65-2.48,8.65-7.59V22.92Z"/></g></g></svg>