<?xml version="1.0" encoding="UTF-8"?>
<svg id="DWave_Logo_-_Dark" xmlns="http://www.w3.org/2000/svg" version="1.1" viewBox="0 0 659.4 84.9">
  <!-- Generator: Adobe Illustrator 29.1.0, SVG Export Plug-In . SVG Version: 2.1.0 Build 142)  -->
  <defs>
    <style>
      .st0 {
        fill: #17bebb;
      }

      .st1 {
        fill: #fff;
      }

      .st2 {
        fill: #2a7de1;
      }

      .st3 {
        fill: #f37820;
      }
    </style>
  </defs>
  <path id="E" class="st1" d="M651.9,43.2c-4.7,4.3-10.8,6.7-17.2,6.7h-32v-15.3h32c2.1,0,4.2-.8,5.8-2.2,1.9-1.6,2.9-3.4,2.9-5.4v-4.1c0-5.1-2.9-7.7-8.7-7.7h-50.2c-5.8,0-8.7,2.6-8.7,7.7v38.8c0,2.1,1,4.2,2.8,5.4,1.6,1.5,3.8,2.3,6,2.3h73.5v15.1h-73.5c-6.3,0-12.5-2.3-17.2-6.6-4.8-4-7.6-10-7.6-16.3V22.9c-.2-6.3,2.5-12.3,7.3-16.4,4.8-4.2,11-6.5,17.5-6.4h50.2C641.2,0,647.4,2.2,652.3,6.4c4.8,4.2,7.5,10.2,7.3,16.6v4.1c0,6.3-2.4,11.6-7.6,16.2h0Z"/>
  <path id="V" class="st1" d="M538,61.9c-3.9,15.3-12.1,22.8-24.7,22.8h-21.5c-12.7,0-20.8-7.6-24.7-22.8L451.2,0h17l15.3,58.9c1.7,7,5.4,10.5,10.6,10.5h16.9c5.4,0,9.2-3.5,10.9-10.5l15.1-58.9h17l-16,61.8h0Z"/>
  <path id="A" class="st1" d="M437.4,78.4c-4.9,4.2-11.1,6.5-17.6,6.4h-50.1c-6.4,0-12.6-2.2-17.5-6.4-4.8-4.1-7.4-10.1-7.3-16.4v-4.1c0-6.3,2.7-12.2,7.6-16.2,4.7-4.3,10.8-6.7,17.2-6.7h31.9v15.1h-31.9c-2.2,0-4.3.8-6,2.2-1.7,1.3-2.8,3.4-2.8,5.5v4.1c0,5.1,2.9,7.6,8.7,7.6h50.1c6,0,8.9-2.5,8.9-7.6V22.9c0-2.1-1-4.1-2.7-5.4-1.7-1.5-3.9-2.3-6.1-2.3h-73.4V0h73.3c6.4,0,12.5,2.3,17.2,6.7,5.1,4.5,7.6,9.9,7.6,16.1v39c0,6.7-2.3,12.2-7.1,16.4v.2Z"/>
  <path id="Dot_4" class="st3" d="M173.7,74.5c0,5.6-4.5,10.1-10.1,10.1s-10.1-4.5-10.1-10.1,4.5-10.1,10.1-10.1h0c5.6,0,10.1,4.5,10.1,10.1Z"/>
  <path id="Dot_2" class="st1" d="M140.1,42.3c0,5.6-4.5,10.1-10.1,10.1s-10.1-4.5-10.1-10.1,4.5-10.1,10.1-10.1h0c5.6,0,10.1,4.5,10.1,10.1h0Z"/>
  <path id="Dot_3_Blue" class="st0" d="M173.7,42.3c0,5.6-4.5,10.1-10.1,10.1s-10.1-4.5-10.1-10.1,4.5-10.1,10.1-10.1,10.1,4.5,10.1,10.1h0Z"/>
  <path id="Dot_1" class="st2" d="M140.1,10.1c0,5.6-4.5,10.1-10.1,10.1s-10.1-4.5-10.1-10.1,4.5-10.1,10.1-10.1h0c5.6,0,10.1,4.5,10.1,10.1h0Z"/>
  <path id="W" class="st1" d="M318,0l-15.1,58.7c-1.8,7-5.5,10.4-10.9,10.4h-6.5c-5.2,0-9.3-3.7-10.9-10.5l-.2-.4c-4.1-13-15.9-11.8-15.9-11.8-12,.2-16,12.3-16,12.3-1.7,7-5.5,10.4-10.9,10.4h-6.5c-5.2,0-8.8-3.5-10.6-10.4L199.5,0h-17l15.8,61.6c3.9,15.2,12,22.7,24.6,22.7h11.1c12.2,0,20.1-7,24.2-21.2l.4-1.5c3.9,15.1,12.1,22.6,24.6,22.6h11.1c12.6,0,20.7-7.5,24.6-22.8L334.9,0h-16.9Z"/>
  <path id="D" class="st1" d="M95.4,78.5c-4.8,4.3-11,6.6-17.4,6.4H0V0h77.9c6.3,0,12.4,2.4,17,6.7,4.8,4,7.5,9.9,7.5,16.2v39.1c0,6.7-2.3,12.3-7.1,16.5h0ZM86.6,22.9c0-2.1-1-4.1-2.7-5.4-1.6-1.5-3.7-2.3-5.9-2.3H15.7v54.4h62.2c5.8,0,8.7-2.5,8.7-7.6V22.9Z"/>
</svg>