<?xml version="1.0" encoding="UTF-8" standalone="no"?>
<svg
   xmlns:dc="http://purl.org/dc/elements/1.1/"
   xmlns:cc="http://creativecommons.org/ns#"
   xmlns:rdf="http://www.w3.org/1999/02/22-rdf-syntax-ns#"
   xmlns:svg="http://www.w3.org/2000/svg"
   xmlns="http://www.w3.org/2000/svg"
   xmlns:sodipodi="http://sodipodi.sourceforge.net/DTD/sodipodi-0.dtd"
   xmlns:inkscape="http://www.inkscape.org/namespaces/inkscape"
   viewBox="0 0 659.44 84.93"
   version="1.1"
   id="svg18"
   sodipodi:docname="DWaveWhite.svg"
   inkscape:version="0.92.3 (2405546, 2018-03-11)">
  <metadata
     id="metadata22">
    <rdf:RDF>
      <cc:Work
         rdf:about="">
        <dc:format>image/svg+xml</dc:format>
        <dc:type
           rdf:resource="http://purl.org/dc/dcmitype/StillImage" />
      </cc:Work>
    </rdf:RDF>
  </metadata>
  <sodipodi:namedview
     pagecolor="#ffffff"
     bordercolor="#666666"
     borderopacity="1"
     objecttolerance="10"
     gridtolerance="10"
     guidetolerance="10"
     inkscape:pageopacity="0"
     inkscape:pageshadow="2"
     inkscape:window-width="1264"
     inkscape:window-height="815"
     id="namedview20"
     showgrid="false"
     inkscape:zoom="0.43066844"
     inkscape:cx="320.43211"
     inkscape:cy="42.465"
     inkscape:window-x="538"
     inkscape:window-y="133"
     inkscape:window-maximized="0"
     inkscape:current-layer="svg18" />
  <defs
     id="defs4">
    <style
       id="style2">.m{fill:#fff;}.n{fill:#2a7de1;}</style>
  </defs>
  <g
     id="a" />
  <g
     id="b">
    <g
       id="c">
      <path
         id="d"
         class="m"
         d="m 651.86,43.16 c -4.67,4.32 -10.8,6.71 -17.16,6.68 h -32 V 34.57 h 32 c 2.13,-0.05 4.18,-0.82 5.82,-2.18 1.89,-1.6 2.91,-3.35 2.91,-5.38 v -4.08 c 0,-5.08 -2.91,-7.71 -8.73,-7.71 h -50.2 c -5.82,0 -8.73,2.63 -8.73,7.71 v 38.85 c -0.03,2.14 1.01,4.16 2.77,5.38 1.64,1.5 3.78,2.33 6,2.33 H 658 v 15.13 h -73.5 c -6.34,0.02 -12.45,-2.32 -17.17,-6.55 -4.85,-4.01 -7.63,-10 -7.57,-16.29 V 22.93 c -0.19,-6.3 2.49,-12.35 7.29,-16.44 4.81,-4.25 11.04,-6.53 17.45,-6.4 h 50.2 c 6.39,-0.11 12.6,2.12 17.46,6.26 4.79,4.15 7.46,10.24 7.27,16.58 V 27 c 0,6.3 -2.43,11.64 -7.57,16.16 z"
         inkscape:connector-curvature="0"
         style="fill:#ffffff" />
      <path
         id="e"
         class="m"
         d="m 538,61.92 c -3.92,15.28 -12.07,22.85 -24.73,22.85 h -21.5 c -12.66,0 -20.8,-7.57 -24.73,-22.85 L 451.17,0.09 h 17 L 483.45,59 c 1.74,7 5.38,10.48 10.62,10.48 H 511 c 5.37,0 9.16,-3.49 10.91,-10.48 L 537,0.09 h 17 z"
         inkscape:connector-curvature="0"
         style="fill:#ffffff" />
      <path
         id="f"
         class="m"
         d="m 437.44,78.36 c -4.87,4.25 -11.14,6.53 -17.6,6.41 h -50.06 c -6.42,0.13 -12.64,-2.16 -17.45,-6.41 -4.77,-4.11 -7.44,-10.15 -7.28,-16.44 v -4.07 c -0.09,-6.26 2.7,-12.22 7.57,-16.15 4.66,-4.34 10.8,-6.73 17.16,-6.7 h 31.87 v 15.13 h -31.87 c -2.19,0.01 -4.31,0.79 -6,2.19 -1.75,1.3 -2.78,3.35 -2.78,5.53 v 4.07 c 0,5.1 2.91,7.57 8.72,7.57 h 50.08 c 6,0 8.87,-2.47 8.87,-7.57 v -39 c -0.01,-2.11 -1,-4.09 -2.67,-5.37 -1.69,-1.49 -3.86,-2.32 -6.11,-2.33 H 346.51 V 0.09 h 73.33 c 6.37,-0.08 12.53,2.32 17.16,6.7 5.1,4.51 7.57,9.89 7.57,16.14 v 39 c 0,6.69 -2.33,12.21 -7.13,16.43 z"
         inkscape:connector-curvature="0"
         style="fill:#ffffff" />
      <path
         id="g"
         class="m"
         d="m 173.66,74.53 c 0,5.58 -4.51,10.1 -10.09,10.11 -5.58,0.01 -10.1,-4.51 -10.11,-10.09 -0.01,-5.58 4.51,-10.1 10.09,-10.11 v 0 c 5.58,0 10.1,4.51 10.11,10.09 z"
         inkscape:connector-curvature="0"
         style="fill:#ffffff" />
      <path
         id="h"
         class="n"
         d="m 173.66,42.3 c 0,5.58 -4.52,10.1 -10.1,10.1 -5.58,0 -10.1,-4.52 -10.1,-10.1 0,-5.58 4.52,-10.1 10.1,-10.1 5.58,0 10.1,4.52 10.1,10.1 z"
         inkscape:connector-curvature="0"
         style="fill:#2a7de1" />
      <path
         id="i"
         class="m"
         d="m 140.1,42.3 c 0,5.58 -4.51,10.1 -10.09,10.11 -5.58,0 -10.1,-4.51 -10.11,-10.09 0,-5.58 4.51,-10.1 10.09,-10.11 v 0 c 5.57,0 10.09,4.51 10.1,10.08 v 0 z"
         inkscape:connector-curvature="0"
         style="fill:#ffffff" />
      <path
         id="j"
         class="m"
         d="m 140.1,10.09 c 0,5.58 -4.51,10.1 -10.09,10.11 -5.58,0 -10.1,-4.51 -10.11,-10.09 C 119.89,4.53 124.41,0 129.99,0 v 0 c 5.57,0 10.09,4.51 10.1,10.08 v 0 z"
         inkscape:connector-curvature="0"
         style="fill:#ffffff" />
      <path
         id="k"
         class="m"
         d="m 318,0.09 -15.07,58.68 c -1.75,7 -5.51,10.44 -10.87,10.44 h -6.46 c -5.22,0 -9.28,-3.72 -10.9,-10.45 l -0.17,-0.44 c -4.06,-13 -15.89,-11.85 -15.89,-11.85 -12,0.16 -16,12.34 -16,12.34 -1.74,7 -5.51,10.4 -10.86,10.4 h -6.46 c -5.21,0 -8.84,-3.48 -10.58,-10.44 L 199.52,0.09 h -17 l 15.79,61.58 c 3.92,15.22 12,22.75 24.63,22.75 H 234 c 12.17,0 20.15,-7 24.21,-21.18 l 0.35,-1.45 c 3.93,15.09 12.08,22.63 24.64,22.63 h 11.09 c 12.6,0 20.72,-7.53 24.63,-22.75 L 334.89,0.09 Z"
         inkscape:connector-curvature="0"
         style="fill:#ffffff" />
      <path
         id="l"
         class="m"
         d="m 95.36,78.5 c -4.79,4.26 -11.02,6.55 -17.43,6.42 H 0 V 0 h 77.93 c 6.32,-0.02 12.4,2.38 17,6.72 4.78,4.02 7.52,9.95 7.49,16.19 V 62 c 0,6.74 -2.31,12.3 -7.06,16.5 z M 86.58,22.92 C 86.55,20.8 85.54,18.81 83.84,17.53 82.24,16.03 80.12,15.2 77.93,15.19 H 15.7 v 54.42 h 62.23 c 5.76,0 8.65,-2.48 8.65,-7.59 z"
         inkscape:connector-curvature="0"
         style="fill:#ffffff" />
    </g>
  </g>
</svg>
