<svg xmlns="http://www.w3.org/2000/svg" viewBox="0 0 381.25 149.72"><defs><style>.cls-1{fill:#17bebb;}.cls-2{fill:#fff;}</style></defs><g id="Layer_2" data-name="Layer 2"><g id="Introduction"><circle class="cls-1" cx="68.73" cy="68.73" r="68.73" transform="translate(-28.47 68.73) rotate(-45)"/><path class="cls-2" d="M106.79,102.13H52.3a22.25,22.25,0,0,1-15.18-5.57,18.24,18.24,0,0,1-6.33-14.31V36.38H44.71V81.67c0,4.43,2.53,6.58,7.59,6.58h54.49Z"/><path class="cls-1" d="M299.32,41a18.88,18.88,0,0,0-13.18-5.14H229.83V47.46h56.31a7,7,0,0,1,4.69,1.8A5.21,5.21,0,0,1,293,53.39v9.27H247.7a19.27,19.27,0,0,0-13.18,5.14,15.64,15.64,0,0,0-5.81,12.4v3.13A16.1,16.1,0,0,0,234.3,96a19.64,19.64,0,0,0,13.4,4.92h57.43V53.39A16,16,0,0,0,299.32,41ZM286.14,89.14H247.7c-4.47,0-6.7-1.9-6.7-5.81V80.2A5.27,5.27,0,0,1,243.13,76a7.27,7.27,0,0,1,4.57-1.68H293v9.06C293,87.24,290.72,89.14,286.14,89.14Z"/><path class="cls-1" d="M202.25,74.05a19.26,19.26,0,0,0,13.18-5.13,16,16,0,0,0,5.82-12.4V53.39a16.22,16.22,0,0,0-5.59-12.74,20.17,20.17,0,0,0-13.41-4.8H163.71a19.66,19.66,0,0,0-13.4,4.91,16,16,0,0,0-5.6,12.63V83.22a16.06,16.06,0,0,0,5.81,12.51,19.7,19.7,0,0,0,13.19,5h56.42V89.14H163.71a6.78,6.78,0,0,1-4.58-1.79A5,5,0,0,1,157,83.22V74.05ZM163.71,47.46h38.54c4.47,0,6.71,2,6.71,5.93v3.13a5.39,5.39,0,0,1-2.24,4.13,7.17,7.17,0,0,1-4.47,1.67H157V53.39C157,49.48,159.24,47.46,163.71,47.46Z"/><path class="cls-1" d="M375.5,41a18.92,18.92,0,0,0-13.05-5.15H313.36V149.72h12.06V101.05h37a19.61,19.61,0,0,0,13.39-4.93,16.18,16.18,0,0,0,5.41-12.66v-30A16.11,16.11,0,0,0,375.5,41Zm-6.41,42.46c0,3.92-2.22,5.83-6.64,5.83h-37V47.5h37A6.7,6.7,0,0,1,367,49.29a5.3,5.3,0,0,1,2.1,4.15Z"/></g></g></svg>