<svg xmlns="http://www.w3.org/2000/svg" viewBox="0 0 471.77 137.21"><defs><style>.cls-1{fill:#2a7de1;}.cls-2{fill:#fff;}</style></defs><g id="Layer_2" data-name="Layer 2"><g id="Introduction"><path class="cls-1" d="M220.25,87.94H164a6,6,0,0,1-3.74-1.37,4.08,4.08,0,0,1-1.67-3.28V53.92c0-2.12.61-4.55,5.41-4.55h56.23V35.7H164a20.27,20.27,0,0,0-13.81,5.07,16.78,16.78,0,0,0-5.82,13.15V83.29a16.4,16.4,0,0,0,6,12.93A19.77,19.77,0,0,0,164,101.51h56.23Z"/><path class="cls-1" d="M286.42,75.2a19.36,19.36,0,0,0,13.42-5.29,16.46,16.46,0,0,0,6-12.94v-3a16.88,16.88,0,0,0-5.76-13.15,19.9,19.9,0,0,0-13.65-5.07h-37a20.12,20.12,0,0,0-13.77,5.07A16.84,16.84,0,0,0,230,53.92V83.1a16.79,16.79,0,0,0,6,12.92,19,19,0,0,0,13.45,5.3h55.37V87.74H249.39a5.68,5.68,0,0,1-3.8-1.48A4,4,0,0,1,244,83.1V75.2ZM244,53.92c0-2.24.64-4.53,5.44-4.53h37c4.73,0,5.33,2.42,5.33,4.53v3a4,4,0,0,1-1.61,3.24,5.9,5.9,0,0,1-3.72,1.4H244Z"/><path class="cls-1" d="M453.49,35.7H402v65.68h13.72v-46c0-4.88,2.3-5.54,4.56-5.54h33.19a4,4,0,0,1,3.19,1.68,5.78,5.78,0,0,1,1.48,3.86v46.1h13.61V55.39a19.42,19.42,0,0,0-5.31-13.63A16.75,16.75,0,0,0,453.49,35.7Z"/><path class="cls-1" d="M386.27,41a19.4,19.4,0,0,0-13.61-5.3h-56.6V49.26h56.6a5.76,5.76,0,0,1,3.85,1.49,4,4,0,0,1,1.67,3.17v7.91h-43a19.76,19.76,0,0,0-13.58,5.28,16.46,16.46,0,0,0-6.05,13v3a16.78,16.78,0,0,0,5.82,13.15,20.29,20.29,0,0,0,13.81,5.07h57.1V53.92A16.74,16.74,0,0,0,386.27,41ZM329.78,80.06a4,4,0,0,1,1.64-3.26,6,6,0,0,1,3.77-1.4h43v7.7c0,2.25-.65,4.55-5.52,4.55H335.19c-4.8,0-5.41-2.43-5.41-4.55Z"/><circle class="cls-1" cx="68.6" cy="68.6" r="68.6"/><path class="cls-2" d="M100.71,40.77A20.27,20.27,0,0,0,86.9,35.7H50.31A20.25,20.25,0,0,0,36.5,40.77a16.76,16.76,0,0,0-5.83,13.15V83.29a16.43,16.43,0,0,0,6,12.93,19.79,19.79,0,0,0,13.6,5.29H86.9a19.77,19.77,0,0,0,13.59-5.29,16.4,16.4,0,0,0,6-12.93V53.92A16.78,16.78,0,0,0,100.71,40.77Zm-8.4,42.52a4.08,4.08,0,0,1-1.67,3.28,6,6,0,0,1-3.74,1.37H50.31a5.91,5.91,0,0,1-3.74-1.37,4.07,4.07,0,0,1-1.68-3.28V53.92c0-2.12.62-4.55,5.42-4.55H86.9c4.8,0,5.41,2.43,5.41,4.55Z"/></g></g></svg>